<svg width="24" height="24" viewBox="0 0 24 24" fill="none" xmlns="http://www.w3.org/2000/svg">
<path d="M6.125 3C5.2962 3 4.50134 3.32924 3.91529 3.91529C3.32924 4.50134 3 5.2962 3 6.125V17.875C3 18.7038 3.32924 19.4987 3.91529 20.0847C4.50134 20.6708 5.2962 21 6.125 21H12.9645C13.3749 21.0001 13.7813 20.9193 14.1605 20.7623C14.5397 20.6053 14.8843 20.3752 15.1745 20.085L20.0845 15.174C20.3748 14.8838 20.605 14.5393 20.7621 14.1601C20.9192 13.7809 21 13.3744 21 12.964V6.125C21 5.2962 20.6708 4.50134 20.0847 3.91529C19.4987 3.32924 18.7038 3 17.875 3H6.125ZM4.25 6.125C4.25 5.62772 4.44754 5.15081 4.79917 4.79917C5.15081 4.44754 5.62772 4.25 6.125 4.25H17.875C18.3723 4.25 18.8492 4.44754 19.2008 4.79917C19.5525 5.15081 19.75 5.62772 19.75 6.125V13H16.125C15.2962 13 14.5013 13.3292 13.9153 13.9153C13.3292 14.5013 13 15.2962 13 16.125V19.75H6.125C5.62772 19.75 5.15081 19.5525 4.79917 19.2008C4.44754 18.8492 4.25 18.3723 4.25 17.875V6.125ZM14.25 19.24V16.125C14.25 15.6277 14.4475 15.1508 14.7992 14.7992C15.1508 14.4475 15.6277 14.25 16.125 14.25H19.24C19.2272 14.2635 19.2142 14.2769 19.201 14.29L14.2905 19.201C14.2772 19.2142 14.2637 19.2272 14.25 19.24Z" fill="#3993C3"/>
</svg>
