<svg width="24" height="24" viewBox="0 0 24 24" fill="none" xmlns="http://www.w3.org/2000/svg">
<g clip-path="url(#clip0_500_2016)">
<path d="M12.0859 -0.00878906C7.16625 -0.00878906 3 4.18109 3 9.14459C3 14.3421 7.82887 19.6573 11.0771 23.3931C11.0895 23.4081 11.6145 23.9912 12.2614 23.9912H12.3188C12.9656 23.9912 13.4869 23.4081 13.5 23.3931C16.5484 19.8887 21 14.1107 21 9.14459C21 4.18109 17.7502 -0.00878906 12.0859 -0.00878906ZM12.3866 22.387C12.3604 22.4132 12.3221 22.4425 12.2884 22.4669C12.2539 22.4432 12.2164 22.4132 12.1886 22.387L11.7964 21.9359C8.71687 18.403 4.5 13.5651 4.5 9.14459C4.5 4.99596 7.974 1.49084 12.0859 1.49084C17.2076 1.49084 19.5 5.33459 19.5 9.14459C19.5 12.5005 17.1064 16.9562 12.3866 22.387ZM12.0262 4.53284C9.5411 4.53284 7.52623 6.54771 7.52623 9.03284C7.52623 11.518 9.5411 13.5328 12.0262 13.5328C14.5114 13.5328 16.5262 11.518 16.5262 9.03284C16.5262 6.54771 14.5114 4.53284 12.0262 4.53284ZM12.0262 12.0328C10.3721 12.0328 8.9917 10.6543 8.9917 8.99984C8.9917 7.34571 10.3376 5.99984 11.9917 5.99984C13.647 5.99984 14.9917 7.34571 14.9917 8.99984C14.9925 10.6543 13.6815 12.0328 12.0262 12.0328Z" fill="#3993C3"/>
</g>
<defs>
<clipPath id="clip0_500_2016">
<rect width="24" height="24" fill="white"/>
</clipPath>
</defs>
</svg>
