<svg width="82" height="72" viewBox="0 0 82 72" fill="none" xmlns="http://www.w3.org/2000/svg">
<rect width="82" height="72" rx="8" fill="white"/>
<path d="M39.0698 14.3198L32.1398 19.8698C31.3598 20.4898 30.8598 21.7998 31.0298 22.7798L32.3598 30.7398C32.5998 32.1598 33.9598 33.3098 35.3998 33.3098H46.5998C48.0298 33.3098 49.3998 32.1498 49.6398 30.7398L50.9698 22.7798C51.1298 21.7998 50.6298 20.4898 49.8598 19.8698L42.9298 14.3298C41.8598 13.4698 40.1298 13.4698 39.0698 14.3198V14.3198Z" stroke="#A6A6A6" stroke-width="1.5" stroke-linecap="round" stroke-linejoin="round"/>
<path d="M41 27C41.663 27 42.2989 26.7366 42.7678 26.2678C43.2366 25.7989 43.5 25.163 43.5 24.5C43.5 23.837 43.2366 23.2011 42.7678 22.7322C42.2989 22.2634 41.663 22 41 22C40.337 22 39.7011 22.2634 39.2322 22.7322C38.7634 23.2011 38.5 23.837 38.5 24.5C38.5 25.163 38.7634 25.7989 39.2322 26.2678C39.7011 26.7366 40.337 27 41 27Z" stroke="#A6A6A6" stroke-width="1.5" stroke-linecap="round" stroke-linejoin="round"/>
<path d="M17.416 57.5V49.1H22.756V49.868H18.052L18.28 49.64L18.292 57.5H17.416ZM21.0405 57.488L21.1005 56.756C21.1565 56.764 21.2085 56.776 21.2565 56.792C21.3125 56.8 21.3605 56.804 21.4005 56.804C21.6565 56.804 21.8605 56.708 22.0125 56.516C22.1725 56.324 22.2925 56.068 22.3725 55.748C22.4525 55.428 22.5085 55.068 22.5405 54.668C22.5725 54.26 22.6005 53.852 22.6245 53.444L22.7325 51.2H27.3525V57.5H26.5005V51.692L26.7165 51.944H23.2845L23.4885 51.68L23.3925 53.504C23.3685 54.048 23.3245 54.568 23.2605 55.064C23.2045 55.56 23.1125 55.996 22.9845 56.372C22.8645 56.748 22.6965 57.044 22.4805 57.26C22.2645 57.468 21.9885 57.572 21.6525 57.572C21.5565 57.572 21.4565 57.564 21.3525 57.548C21.2565 57.532 21.1525 57.512 21.0405 57.488ZM33.6865 57.5V56.108L33.6505 55.88V53.552C33.6505 53.016 33.4985 52.604 33.1945 52.316C32.8985 52.028 32.4545 51.884 31.8625 51.884C31.4545 51.884 31.0665 51.952 30.6985 52.088C30.3305 52.224 30.0185 52.404 29.7625 52.628L29.3785 51.992C29.6985 51.72 30.0825 51.512 30.5305 51.368C30.9785 51.216 31.4505 51.14 31.9465 51.14C32.7625 51.14 33.3905 51.344 33.8305 51.752C34.2785 52.152 34.5025 52.764 34.5025 53.588V57.5H33.6865ZM31.5145 57.56C31.0425 57.56 30.6305 57.484 30.2785 57.332C29.9345 57.172 29.6705 56.956 29.4865 56.684C29.3025 56.404 29.2105 56.084 29.2105 55.724C29.2105 55.396 29.2865 55.1 29.4385 54.836C29.5985 54.564 29.8545 54.348 30.2065 54.188C30.5665 54.02 31.0465 53.936 31.6465 53.936H33.8185V54.572H31.6705C31.0625 54.572 30.6385 54.68 30.3985 54.896C30.1665 55.112 30.0505 55.38 30.0505 55.7C30.0505 56.06 30.1905 56.348 30.4705 56.564C30.7505 56.78 31.1425 56.888 31.6465 56.888C32.1265 56.888 32.5385 56.78 32.8825 56.564C33.2345 56.34 33.4905 56.02 33.6505 55.604L33.8425 56.192C33.6825 56.608 33.4025 56.94 33.0025 57.188C32.6105 57.436 32.1145 57.56 31.5145 57.56ZM36.7706 57.5V51.2H39.5546C40.2666 51.2 40.8266 51.336 41.2346 51.608C41.6506 51.88 41.8586 52.28 41.8586 52.808C41.8586 53.32 41.6626 53.716 41.2706 53.996C40.8786 54.268 40.3626 54.404 39.7226 54.404L39.8906 54.152C40.6426 54.152 41.1946 54.292 41.5466 54.572C41.8986 54.852 42.0746 55.256 42.0746 55.784C42.0746 56.328 41.8746 56.752 41.4746 57.056C41.0826 57.352 40.4706 57.5 39.6386 57.5H36.7706ZM37.5986 56.828H39.6026C40.1386 56.828 40.5426 56.744 40.8146 56.576C41.0946 56.4 41.2346 56.12 41.2346 55.736C41.2346 55.352 41.1106 55.072 40.8626 54.896C40.6146 54.72 40.2226 54.632 39.6866 54.632H37.5986V56.828ZM37.5986 53.996H39.4946C39.9826 53.996 40.3546 53.904 40.6106 53.72C40.8746 53.536 41.0066 53.268 41.0066 52.916C41.0066 52.564 40.8746 52.3 40.6106 52.124C40.3546 51.948 39.9826 51.86 39.4946 51.86H37.5986V53.996ZM44.0714 57.5V51.2H44.9234V53.984H48.8954V51.2H49.7474V57.5H48.8954V54.716H44.9234V57.5H44.0714ZM56.081 57.5V56.108L56.045 55.88V53.552C56.045 53.016 55.893 52.604 55.589 52.316C55.293 52.028 54.849 51.884 54.257 51.884C53.849 51.884 53.461 51.952 53.093 52.088C52.725 52.224 52.413 52.404 52.157 52.628L51.773 51.992C52.093 51.72 52.477 51.512 52.925 51.368C53.373 51.216 53.845 51.14 54.341 51.14C55.157 51.14 55.785 51.344 56.225 51.752C56.673 52.152 56.897 52.764 56.897 53.588V57.5H56.081ZM53.909 57.56C53.437 57.56 53.025 57.484 52.673 57.332C52.329 57.172 52.065 56.956 51.881 56.684C51.697 56.404 51.605 56.084 51.605 55.724C51.605 55.396 51.681 55.1 51.833 54.836C51.993 54.564 52.249 54.348 52.601 54.188C52.961 54.02 53.441 53.936 54.041 53.936H56.213V54.572H54.065C53.457 54.572 53.033 54.68 52.793 54.896C52.561 55.112 52.445 55.38 52.445 55.7C52.445 56.06 52.585 56.348 52.865 56.564C53.145 56.78 53.537 56.888 54.041 56.888C54.521 56.888 54.933 56.78 55.277 56.564C55.629 56.34 55.885 56.02 56.045 55.604L56.237 56.192C56.077 56.608 55.797 56.94 55.397 57.188C55.005 57.436 54.509 57.56 53.909 57.56ZM63.2331 57.5V55.232L63.3891 55.412H61.2531C60.4451 55.412 59.8131 55.236 59.3571 54.884C58.9011 54.532 58.6731 54.02 58.6731 53.348C58.6731 52.628 58.9171 52.092 59.4051 51.74C59.8931 51.38 60.5451 51.2 61.3611 51.2H64.0131V57.5H63.2331ZM58.6251 57.5L60.3531 55.076H61.2411L59.5491 57.5H58.6251ZM63.2331 54.98V51.692L63.3891 51.944H61.3851C60.8011 51.944 60.3451 52.056 60.0171 52.28C59.6971 52.504 59.5371 52.868 59.5371 53.372C59.5371 54.308 60.1331 54.776 61.3251 54.776H63.3891L63.2331 54.98Z" fill="#A6A6A6"/>
</svg>
