<svg width="132" height="112" viewBox="0 0 132 112" fill="none" xmlns="http://www.w3.org/2000/svg">
<g filter="url(#filter0_dd_263_3269)">
<rect x="25" y="20" width="82" height="72" rx="8" fill="white"/>
<path d="M64.0698 34.3198L57.1398 39.8698C56.3598 40.4898 55.8598 41.7998 56.0298 42.7798L57.3598 50.7398C57.5998 52.1598 58.9598 53.3098 60.3998 53.3098H71.5998C73.0298 53.3098 74.3998 52.1498 74.6398 50.7398L75.9698 42.7798C76.1298 41.7998 75.6298 40.4898 74.8598 39.8698L67.9298 34.3298C66.8598 33.4698 65.1298 33.4698 64.0698 34.3198V34.3198Z" stroke="#3993C3" stroke-width="1.5" stroke-linecap="round" stroke-linejoin="round"/>
<path d="M66 47C66.663 47 67.2989 46.7366 67.7678 46.2678C68.2366 45.7989 68.5 45.163 68.5 44.5C68.5 43.837 68.2366 43.2011 67.7678 42.7322C67.2989 42.2634 66.663 42 66 42C65.337 42 64.7011 42.2634 64.2322 42.7322C63.7634 43.2011 63.5 43.837 63.5 44.5C63.5 45.163 63.7634 45.7989 64.2322 46.2678C64.7011 46.7366 65.337 47 66 47Z" stroke="#3993C3" stroke-width="1.5" stroke-linecap="round" stroke-linejoin="round"/>
<path d="M42.416 77.5V69.1H47.756V69.868H43.052L43.28 69.64L43.292 77.5H42.416ZM46.0405 77.488L46.1005 76.756C46.1565 76.764 46.2085 76.776 46.2565 76.792C46.3125 76.8 46.3605 76.804 46.4005 76.804C46.6565 76.804 46.8605 76.708 47.0125 76.516C47.1725 76.324 47.2925 76.068 47.3725 75.748C47.4525 75.428 47.5085 75.068 47.5405 74.668C47.5725 74.26 47.6005 73.852 47.6245 73.444L47.7325 71.2H52.3525V77.5H51.5005V71.692L51.7165 71.944H48.2845L48.4885 71.68L48.3925 73.504C48.3685 74.048 48.3245 74.568 48.2605 75.064C48.2045 75.56 48.1125 75.996 47.9845 76.372C47.8645 76.748 47.6965 77.044 47.4805 77.26C47.2645 77.468 46.9885 77.572 46.6525 77.572C46.5565 77.572 46.4565 77.564 46.3525 77.548C46.2565 77.532 46.1525 77.512 46.0405 77.488ZM58.6865 77.5V76.108L58.6505 75.88V73.552C58.6505 73.016 58.4985 72.604 58.1945 72.316C57.8985 72.028 57.4545 71.884 56.8625 71.884C56.4545 71.884 56.0665 71.952 55.6985 72.088C55.3305 72.224 55.0185 72.404 54.7625 72.628L54.3785 71.992C54.6985 71.72 55.0825 71.512 55.5305 71.368C55.9785 71.216 56.4505 71.14 56.9465 71.14C57.7625 71.14 58.3905 71.344 58.8305 71.752C59.2785 72.152 59.5025 72.764 59.5025 73.588V77.5H58.6865ZM56.5145 77.56C56.0425 77.56 55.6305 77.484 55.2785 77.332C54.9345 77.172 54.6705 76.956 54.4865 76.684C54.3025 76.404 54.2105 76.084 54.2105 75.724C54.2105 75.396 54.2865 75.1 54.4385 74.836C54.5985 74.564 54.8545 74.348 55.2065 74.188C55.5665 74.02 56.0465 73.936 56.6465 73.936H58.8185V74.572H56.6705C56.0625 74.572 55.6385 74.68 55.3985 74.896C55.1665 75.112 55.0505 75.38 55.0505 75.7C55.0505 76.06 55.1905 76.348 55.4705 76.564C55.7505 76.78 56.1425 76.888 56.6465 76.888C57.1265 76.888 57.5385 76.78 57.8825 76.564C58.2345 76.34 58.4905 76.02 58.6505 75.604L58.8425 76.192C58.6825 76.608 58.4025 76.94 58.0025 77.188C57.6105 77.436 57.1145 77.56 56.5145 77.56ZM61.7706 77.5V71.2H64.5546C65.2666 71.2 65.8266 71.336 66.2346 71.608C66.6506 71.88 66.8586 72.28 66.8586 72.808C66.8586 73.32 66.6626 73.716 66.2706 73.996C65.8786 74.268 65.3626 74.404 64.7226 74.404L64.8906 74.152C65.6426 74.152 66.1946 74.292 66.5466 74.572C66.8986 74.852 67.0746 75.256 67.0746 75.784C67.0746 76.328 66.8746 76.752 66.4746 77.056C66.0826 77.352 65.4706 77.5 64.6386 77.5H61.7706ZM62.5986 76.828H64.6026C65.1386 76.828 65.5426 76.744 65.8146 76.576C66.0946 76.4 66.2346 76.12 66.2346 75.736C66.2346 75.352 66.1106 75.072 65.8626 74.896C65.6146 74.72 65.2226 74.632 64.6866 74.632H62.5986V76.828ZM62.5986 73.996H64.4946C64.9826 73.996 65.3546 73.904 65.6106 73.72C65.8746 73.536 66.0066 73.268 66.0066 72.916C66.0066 72.564 65.8746 72.3 65.6106 72.124C65.3546 71.948 64.9826 71.86 64.4946 71.86H62.5986V73.996ZM69.0714 77.5V71.2H69.9234V73.984H73.8954V71.2H74.7474V77.5H73.8954V74.716H69.9234V77.5H69.0714ZM81.081 77.5V76.108L81.045 75.88V73.552C81.045 73.016 80.893 72.604 80.589 72.316C80.293 72.028 79.849 71.884 79.257 71.884C78.849 71.884 78.461 71.952 78.093 72.088C77.725 72.224 77.413 72.404 77.157 72.628L76.773 71.992C77.093 71.72 77.477 71.512 77.925 71.368C78.373 71.216 78.845 71.14 79.341 71.14C80.157 71.14 80.785 71.344 81.225 71.752C81.673 72.152 81.897 72.764 81.897 73.588V77.5H81.081ZM78.909 77.56C78.437 77.56 78.025 77.484 77.673 77.332C77.329 77.172 77.065 76.956 76.881 76.684C76.697 76.404 76.605 76.084 76.605 75.724C76.605 75.396 76.681 75.1 76.833 74.836C76.993 74.564 77.249 74.348 77.601 74.188C77.961 74.02 78.441 73.936 79.041 73.936H81.213V74.572H79.065C78.457 74.572 78.033 74.68 77.793 74.896C77.561 75.112 77.445 75.38 77.445 75.7C77.445 76.06 77.585 76.348 77.865 76.564C78.145 76.78 78.537 76.888 79.041 76.888C79.521 76.888 79.933 76.78 80.277 76.564C80.629 76.34 80.885 76.02 81.045 75.604L81.237 76.192C81.077 76.608 80.797 76.94 80.397 77.188C80.005 77.436 79.509 77.56 78.909 77.56ZM88.2331 77.5V75.232L88.3891 75.412H86.2531C85.4451 75.412 84.8131 75.236 84.3571 74.884C83.9011 74.532 83.6731 74.02 83.6731 73.348C83.6731 72.628 83.9171 72.092 84.4051 71.74C84.8931 71.38 85.5451 71.2 86.3611 71.2H89.0131V77.5H88.2331ZM83.6251 77.5L85.3531 75.076H86.2411L84.5491 77.5H83.6251ZM88.2331 74.98V71.692L88.3891 71.944H86.3851C85.8011 71.944 85.3451 72.056 85.0171 72.28C84.6971 72.504 84.5371 72.868 84.5371 73.372C84.5371 74.308 85.1331 74.776 86.3251 74.776H88.3891L88.2331 74.98Z" fill="#3993C3"/>
</g>
<defs>
<filter id="filter0_dd_263_3269" x="0" y="0" width="132" height="112" filterUnits="userSpaceOnUse" color-interpolation-filters="sRGB">
<feFlood flood-opacity="0" result="BackgroundImageFix"/>
<feColorMatrix in="SourceAlpha" type="matrix" values="0 0 0 0 0 0 0 0 0 0 0 0 0 0 0 0 0 0 127 0" result="hardAlpha"/>
<feOffset dx="5"/>
<feGaussianBlur stdDeviation="10"/>
<feColorMatrix type="matrix" values="0 0 0 0 0 0 0 0 0 0 0 0 0 0 0 0 0 0 0.05 0"/>
<feBlend mode="normal" in2="BackgroundImageFix" result="effect1_dropShadow_263_3269"/>
<feColorMatrix in="SourceAlpha" type="matrix" values="0 0 0 0 0 0 0 0 0 0 0 0 0 0 0 0 0 0 127 0" result="hardAlpha"/>
<feOffset dx="-5"/>
<feGaussianBlur stdDeviation="10"/>
<feColorMatrix type="matrix" values="0 0 0 0 0 0 0 0 0 0 0 0 0 0 0 0 0 0 0.05 0"/>
<feBlend mode="normal" in2="effect1_dropShadow_263_3269" result="effect2_dropShadow_263_3269"/>
<feBlend mode="normal" in="SourceGraphic" in2="effect2_dropShadow_263_3269" result="shape"/>
</filter>
</defs>
</svg>
