<svg width="130" height="112" viewBox="0 0 130 112" fill="none" xmlns="http://www.w3.org/2000/svg">
<g filter="url(#filter0_dd_263_3254)">
<rect x="15" y="20" width="90" height="72" rx="8" fill="white"/>
<path d="M60.0201 34.4102C56.7101 34.4102 54.0201 37.1002 54.0201 40.4102V43.3002C54.0201 43.9102 53.7601 44.8402 53.4501 45.3602L52.3001 47.2702C51.5901 48.4502 52.0801 49.7602 53.3801 50.2002C57.6901 51.6402 62.3401 51.6402 66.6501 50.2002C67.8601 49.8002 68.3901 48.3702 67.7301 47.2702L66.5801 45.3602C66.2801 44.8402 66.0201 43.9102 66.0201 43.3002V40.4102C66.0201 37.1102 63.3201 34.4102 60.0201 34.4102Z" stroke="#3993C3" stroke-width="1.5" stroke-miterlimit="10" stroke-linecap="round"/>
<path d="M61.8699 34.6999C60.6606 34.3555 59.3792 34.3555 58.1699 34.6999C58.4599 33.9599 59.1799 33.4399 60.0199 33.4399C60.8599 33.4399 61.5799 33.9599 61.8699 34.6999V34.6999Z" stroke="#3993C3" stroke-width="1.5" stroke-miterlimit="10" stroke-linecap="round" stroke-linejoin="round"/>
<path d="M63.02 50.5601C63.02 52.2101 61.67 53.5601 60.02 53.5601C59.2 53.5601 58.44 53.2201 57.9 52.6801C57.3382 52.1174 57.0218 51.3552 57.02 50.5601" stroke="#3993C3" stroke-width="1.5" stroke-miterlimit="10"/>
<path d="M18.272 76.672C18.68 76.832 19.064 76.872 19.424 76.792C19.784 76.704 20.116 76.42 20.42 75.94L20.828 75.292L20.912 75.184L24.128 69.1H25.016L21.2 76.132C20.944 76.62 20.64 76.984 20.288 77.224C19.944 77.464 19.576 77.592 19.184 77.608C18.8 77.624 18.412 77.552 18.02 77.392L18.272 76.672ZM20.888 75.988L17.252 69.1H18.2L21.368 75.256L20.888 75.988ZM25.9464 77.5V71.2H28.7304C29.4424 71.2 30.0024 71.336 30.4104 71.608C30.8264 71.88 31.0344 72.28 31.0344 72.808C31.0344 73.32 30.8384 73.716 30.4464 73.996C30.0544 74.268 29.5384 74.404 28.8984 74.404L29.0664 74.152C29.8184 74.152 30.3704 74.292 30.7224 74.572C31.0744 74.852 31.2504 75.256 31.2504 75.784C31.2504 76.328 31.0504 76.752 30.6504 77.056C30.2584 77.352 29.6464 77.5 28.8144 77.5H25.9464ZM26.7744 76.828H28.7784C29.3144 76.828 29.7184 76.744 29.9904 76.576C30.2704 76.4 30.4104 76.12 30.4104 75.736C30.4104 75.352 30.2864 75.072 30.0384 74.896C29.7904 74.72 29.3984 74.632 28.8624 74.632H26.7744V76.828ZM26.7744 73.996H28.6704C29.1584 73.996 29.5304 73.904 29.7864 73.72C30.0504 73.536 30.1824 73.268 30.1824 72.916C30.1824 72.564 30.0504 72.3 29.7864 72.124C29.5304 71.948 29.1584 71.86 28.6704 71.86H26.7744V73.996ZM35.9472 77.56C35.2912 77.56 34.7152 77.424 34.2192 77.152C33.7232 76.872 33.3352 76.492 33.0552 76.012C32.7752 75.524 32.6352 74.968 32.6352 74.344C32.6352 73.72 32.7672 73.168 33.0312 72.688C33.3032 72.208 33.6712 71.832 34.1352 71.56C34.6072 71.28 35.1352 71.14 35.7192 71.14C36.3112 71.14 36.8352 71.276 37.2912 71.548C37.7552 71.812 38.1192 72.188 38.3832 72.676C38.6472 73.156 38.7792 73.712 38.7792 74.344C38.7792 74.384 38.7752 74.428 38.7672 74.476C38.7672 74.516 38.7672 74.56 38.7672 74.608H33.2832V73.972H38.3112L37.9752 74.224C37.9752 73.768 37.8752 73.364 37.6752 73.012C37.4832 72.652 37.2192 72.372 36.8832 72.172C36.5472 71.972 36.1592 71.872 35.7192 71.872C35.2872 71.872 34.8992 71.972 34.5552 72.172C34.2112 72.372 33.9432 72.652 33.7512 73.012C33.5592 73.372 33.4632 73.784 33.4632 74.248V74.38C33.4632 74.86 33.5672 75.284 33.7752 75.652C33.9912 76.012 34.2872 76.296 34.6632 76.504C35.0472 76.704 35.4832 76.804 35.9712 76.804C36.3552 76.804 36.7112 76.736 37.0392 76.6C37.3752 76.464 37.6632 76.256 37.9032 75.976L38.3832 76.528C38.1032 76.864 37.7512 77.12 37.3272 77.296C36.9112 77.472 36.4512 77.56 35.9472 77.56ZM44.8562 77.092V71.944H41.8202L41.7482 73.348C41.7322 73.772 41.7042 74.188 41.6642 74.596C41.6322 75.004 41.5722 75.38 41.4842 75.724C41.4042 76.06 41.2882 76.336 41.1362 76.552C40.9842 76.76 40.7882 76.88 40.5482 76.912L39.6962 76.756C39.9442 76.764 40.1482 76.676 40.3082 76.492C40.4682 76.3 40.5922 76.04 40.6802 75.712C40.7682 75.384 40.8322 75.012 40.8722 74.596C40.9122 74.172 40.9442 73.74 40.9682 73.3L41.0522 71.2H45.7082V77.092H44.8562ZM39.4322 79.024V76.756H46.6922V79.024H45.8882V77.5H40.2362V79.024H39.4322ZM50.9446 77.56C50.3366 77.56 49.7886 77.424 49.3006 77.152C48.8206 76.872 48.4406 76.492 48.1606 76.012C47.8806 75.524 47.7406 74.968 47.7406 74.344C47.7406 73.712 47.8806 73.156 48.1606 72.676C48.4406 72.196 48.8206 71.82 49.3006 71.548C49.7806 71.276 50.3286 71.14 50.9446 71.14C51.5686 71.14 52.1206 71.276 52.6006 71.548C53.0886 71.82 53.4686 72.196 53.7406 72.676C54.0206 73.156 54.1606 73.712 54.1606 74.344C54.1606 74.968 54.0206 75.524 53.7406 76.012C53.4686 76.492 53.0886 76.872 52.6006 77.152C52.1126 77.424 51.5606 77.56 50.9446 77.56ZM50.9446 76.804C51.4006 76.804 51.8046 76.704 52.1566 76.504C52.5086 76.296 52.7846 76.008 52.9846 75.64C53.1926 75.264 53.2966 74.832 53.2966 74.344C53.2966 73.848 53.1926 73.416 52.9846 73.048C52.7846 72.68 52.5086 72.396 52.1566 72.196C51.8046 71.988 51.4046 71.884 50.9566 71.884C50.5086 71.884 50.1086 71.988 49.7566 72.196C49.4046 72.396 49.1246 72.68 48.9166 73.048C48.7086 73.416 48.6046 73.848 48.6046 74.344C48.6046 74.832 48.7086 75.264 48.9166 75.64C49.1246 76.008 49.4046 76.296 49.7566 76.504C50.1086 76.704 50.5046 76.804 50.9446 76.804ZM55.9815 77.5V71.2H56.8455L59.7015 76.036H59.3415L62.2455 71.2H63.0375V77.5H62.2575V72.172L62.4135 72.244L59.7015 76.732H59.3175L56.5815 72.196L56.7615 72.16V77.5H55.9815ZM64.31 77.488L64.37 76.756C64.426 76.764 64.478 76.776 64.526 76.792C64.582 76.8 64.63 76.804 64.67 76.804C64.926 76.804 65.13 76.708 65.282 76.516C65.442 76.324 65.562 76.068 65.642 75.748C65.722 75.428 65.778 75.068 65.81 74.668C65.842 74.26 65.87 73.852 65.894 73.444L66.002 71.2H70.622V77.5H69.77V71.692L69.986 71.944H66.554L66.758 71.68L66.662 73.504C66.638 74.048 66.594 74.568 66.53 75.064C66.474 75.56 66.382 75.996 66.254 76.372C66.134 76.748 65.966 77.044 65.75 77.26C65.534 77.468 65.258 77.572 64.922 77.572C64.826 77.572 64.726 77.564 64.622 77.548C64.526 77.532 64.422 77.512 64.31 77.488ZM75.744 77.56C75.088 77.56 74.512 77.424 74.016 77.152C73.52 76.872 73.132 76.492 72.852 76.012C72.572 75.524 72.432 74.968 72.432 74.344C72.432 73.72 72.564 73.168 72.828 72.688C73.1 72.208 73.468 71.832 73.932 71.56C74.404 71.28 74.932 71.14 75.516 71.14C76.108 71.14 76.632 71.276 77.088 71.548C77.552 71.812 77.916 72.188 78.18 72.676C78.444 73.156 78.576 73.712 78.576 74.344C78.576 74.384 78.572 74.428 78.564 74.476C78.564 74.516 78.564 74.56 78.564 74.608H73.08V73.972H78.108L77.772 74.224C77.772 73.768 77.672 73.364 77.472 73.012C77.28 72.652 77.016 72.372 76.68 72.172C76.344 71.972 75.956 71.872 75.516 71.872C75.084 71.872 74.696 71.972 74.352 72.172C74.008 72.372 73.74 72.652 73.548 73.012C73.356 73.372 73.26 73.784 73.26 74.248V74.38C73.26 74.86 73.364 75.284 73.572 75.652C73.788 76.012 74.084 76.296 74.46 76.504C74.844 76.704 75.28 76.804 75.768 76.804C76.152 76.804 76.508 76.736 76.836 76.6C77.172 76.464 77.46 76.256 77.7 75.976L78.18 76.528C77.9 76.864 77.548 77.12 77.124 77.296C76.708 77.472 76.248 77.56 75.744 77.56ZM80.462 77.5V71.2H81.314V73.984H85.286V71.2H86.138V77.5H85.286V74.716H81.314V77.5H80.462ZM88.5597 77.5V71.2H89.4117V76.204L93.6237 71.2H94.3797V77.5H93.5277V72.484L89.3277 77.5H88.5597ZM100.889 77.5V75.232L101.045 75.412H98.9094C98.1014 75.412 97.4694 75.236 97.0134 74.884C96.5574 74.532 96.3294 74.02 96.3294 73.348C96.3294 72.628 96.5734 72.092 97.0614 71.74C97.5494 71.38 98.2014 71.2 99.0174 71.2H101.669V77.5H100.889ZM96.2814 77.5L98.0094 75.076H98.8974L97.2054 77.5H96.2814ZM100.889 74.98V71.692L101.045 71.944H99.0414C98.4574 71.944 98.0014 72.056 97.6734 72.28C97.3534 72.504 97.1934 72.868 97.1934 73.372C97.1934 74.308 97.7894 74.776 98.9814 74.776H101.045L100.889 74.98Z" fill="#3993C3"/>
</g>
<defs>
<filter id="filter0_dd_263_3254" x="0" y="0" width="130" height="112" filterUnits="userSpaceOnUse" color-interpolation-filters="sRGB">
<feFlood flood-opacity="0" result="BackgroundImageFix"/>
<feColorMatrix in="SourceAlpha" type="matrix" values="0 0 0 0 0 0 0 0 0 0 0 0 0 0 0 0 0 0 127 0" result="hardAlpha"/>
<feOffset dx="5"/>
<feGaussianBlur stdDeviation="10"/>
<feColorMatrix type="matrix" values="0 0 0 0 0 0 0 0 0 0 0 0 0 0 0 0 0 0 0.05 0"/>
<feBlend mode="normal" in2="BackgroundImageFix" result="effect1_dropShadow_263_3254"/>
<feColorMatrix in="SourceAlpha" type="matrix" values="0 0 0 0 0 0 0 0 0 0 0 0 0 0 0 0 0 0 127 0" result="hardAlpha"/>
<feOffset dx="5"/>
<feGaussianBlur stdDeviation="10"/>
<feColorMatrix type="matrix" values="0 0 0 0 0 0 0 0 0 0 0 0 0 0 0 0 0 0 0.05 0"/>
<feBlend mode="normal" in2="effect1_dropShadow_263_3254" result="effect2_dropShadow_263_3254"/>
<feBlend mode="normal" in="SourceGraphic" in2="effect2_dropShadow_263_3254" result="shape"/>
</filter>
</defs>
</svg>
