<svg width="90" height="72" viewBox="0 0 90 72" fill="none" xmlns="http://www.w3.org/2000/svg">
<rect width="90" height="72" rx="8" fill="white"/>
<path d="M45.0201 14.4102C41.7101 14.4102 39.0201 17.1002 39.0201 20.4102V23.3002C39.0201 23.9102 38.7601 24.8402 38.4501 25.3602L37.3001 27.2702C36.5901 28.4502 37.0801 29.7602 38.3801 30.2002C42.6901 31.6402 47.3401 31.6402 51.6501 30.2002C52.8601 29.8002 53.3901 28.3702 52.7301 27.2702L51.5801 25.3602C51.2801 24.8402 51.0201 23.9102 51.0201 23.3002V20.4102C51.0201 17.1102 48.3201 14.4102 45.0201 14.4102Z" stroke="#A6A6A6" stroke-width="1.5" stroke-miterlimit="10" stroke-linecap="round"/>
<path d="M46.8699 14.6999C45.6606 14.3555 44.3792 14.3555 43.1699 14.6999C43.4599 13.9599 44.1799 13.4399 45.0199 13.4399C45.8599 13.4399 46.5799 13.9599 46.8699 14.6999V14.6999Z" stroke="#A6A6A6" stroke-width="1.5" stroke-miterlimit="10" stroke-linecap="round" stroke-linejoin="round"/>
<path d="M48.02 30.5601C48.02 32.2101 46.67 33.5601 45.02 33.5601C44.2 33.5601 43.44 33.2201 42.9 32.6801C42.3382 32.1174 42.0218 31.3552 42.02 30.5601" stroke="#A6A6A6" stroke-width="1.5" stroke-miterlimit="10"/>
<path d="M3.272 56.672C3.68 56.832 4.064 56.872 4.424 56.792C4.784 56.704 5.116 56.42 5.42 55.94L5.828 55.292L5.912 55.184L9.128 49.1H10.016L6.2 56.132C5.944 56.62 5.64 56.984 5.288 57.224C4.944 57.464 4.576 57.592 4.184 57.608C3.8 57.624 3.412 57.552 3.02 57.392L3.272 56.672ZM5.888 55.988L2.252 49.1H3.2L6.368 55.256L5.888 55.988ZM10.9464 57.5V51.2H13.7304C14.4424 51.2 15.0024 51.336 15.4104 51.608C15.8264 51.88 16.0344 52.28 16.0344 52.808C16.0344 53.32 15.8384 53.716 15.4464 53.996C15.0544 54.268 14.5384 54.404 13.8984 54.404L14.0664 54.152C14.8184 54.152 15.3704 54.292 15.7224 54.572C16.0744 54.852 16.2504 55.256 16.2504 55.784C16.2504 56.328 16.0504 56.752 15.6504 57.056C15.2584 57.352 14.6464 57.5 13.8144 57.5H10.9464ZM11.7744 56.828H13.7784C14.3144 56.828 14.7184 56.744 14.9904 56.576C15.2704 56.4 15.4104 56.12 15.4104 55.736C15.4104 55.352 15.2864 55.072 15.0384 54.896C14.7904 54.72 14.3984 54.632 13.8624 54.632H11.7744V56.828ZM11.7744 53.996H13.6704C14.1584 53.996 14.5304 53.904 14.7864 53.72C15.0504 53.536 15.1824 53.268 15.1824 52.916C15.1824 52.564 15.0504 52.3 14.7864 52.124C14.5304 51.948 14.1584 51.86 13.6704 51.86H11.7744V53.996ZM20.9472 57.56C20.2912 57.56 19.7152 57.424 19.2192 57.152C18.7232 56.872 18.3352 56.492 18.0552 56.012C17.7752 55.524 17.6352 54.968 17.6352 54.344C17.6352 53.72 17.7672 53.168 18.0312 52.688C18.3032 52.208 18.6712 51.832 19.1352 51.56C19.6072 51.28 20.1352 51.14 20.7192 51.14C21.3112 51.14 21.8352 51.276 22.2912 51.548C22.7552 51.812 23.1192 52.188 23.3832 52.676C23.6472 53.156 23.7792 53.712 23.7792 54.344C23.7792 54.384 23.7752 54.428 23.7672 54.476C23.7672 54.516 23.7672 54.56 23.7672 54.608H18.2832V53.972H23.3112L22.9752 54.224C22.9752 53.768 22.8752 53.364 22.6752 53.012C22.4832 52.652 22.2192 52.372 21.8832 52.172C21.5472 51.972 21.1592 51.872 20.7192 51.872C20.2872 51.872 19.8992 51.972 19.5552 52.172C19.2112 52.372 18.9432 52.652 18.7512 53.012C18.5592 53.372 18.4632 53.784 18.4632 54.248V54.38C18.4632 54.86 18.5672 55.284 18.7752 55.652C18.9912 56.012 19.2872 56.296 19.6632 56.504C20.0472 56.704 20.4832 56.804 20.9712 56.804C21.3552 56.804 21.7112 56.736 22.0392 56.6C22.3752 56.464 22.6632 56.256 22.9032 55.976L23.3832 56.528C23.1032 56.864 22.7512 57.12 22.3272 57.296C21.9112 57.472 21.4512 57.56 20.9472 57.56ZM29.8562 57.092V51.944H26.8202L26.7482 53.348C26.7322 53.772 26.7042 54.188 26.6642 54.596C26.6322 55.004 26.5722 55.38 26.4842 55.724C26.4042 56.06 26.2882 56.336 26.1362 56.552C25.9842 56.76 25.7882 56.88 25.5482 56.912L24.6962 56.756C24.9442 56.764 25.1482 56.676 25.3082 56.492C25.4682 56.3 25.5922 56.04 25.6802 55.712C25.7682 55.384 25.8322 55.012 25.8722 54.596C25.9122 54.172 25.9442 53.74 25.9682 53.3L26.0522 51.2H30.7082V57.092H29.8562ZM24.4322 59.024V56.756H31.6922V59.024H30.8882V57.5H25.2362V59.024H24.4322ZM35.9446 57.56C35.3366 57.56 34.7886 57.424 34.3006 57.152C33.8206 56.872 33.4406 56.492 33.1606 56.012C32.8806 55.524 32.7406 54.968 32.7406 54.344C32.7406 53.712 32.8806 53.156 33.1606 52.676C33.4406 52.196 33.8206 51.82 34.3006 51.548C34.7806 51.276 35.3286 51.14 35.9446 51.14C36.5686 51.14 37.1206 51.276 37.6006 51.548C38.0886 51.82 38.4686 52.196 38.7406 52.676C39.0206 53.156 39.1606 53.712 39.1606 54.344C39.1606 54.968 39.0206 55.524 38.7406 56.012C38.4686 56.492 38.0886 56.872 37.6006 57.152C37.1126 57.424 36.5606 57.56 35.9446 57.56ZM35.9446 56.804C36.4006 56.804 36.8046 56.704 37.1566 56.504C37.5086 56.296 37.7846 56.008 37.9846 55.64C38.1926 55.264 38.2966 54.832 38.2966 54.344C38.2966 53.848 38.1926 53.416 37.9846 53.048C37.7846 52.68 37.5086 52.396 37.1566 52.196C36.8046 51.988 36.4046 51.884 35.9566 51.884C35.5086 51.884 35.1086 51.988 34.7566 52.196C34.4046 52.396 34.1246 52.68 33.9166 53.048C33.7086 53.416 33.6046 53.848 33.6046 54.344C33.6046 54.832 33.7086 55.264 33.9166 55.64C34.1246 56.008 34.4046 56.296 34.7566 56.504C35.1086 56.704 35.5046 56.804 35.9446 56.804ZM40.9815 57.5V51.2H41.8455L44.7015 56.036H44.3415L47.2455 51.2H48.0375V57.5H47.2575V52.172L47.4135 52.244L44.7015 56.732H44.3175L41.5815 52.196L41.7615 52.16V57.5H40.9815ZM49.31 57.488L49.37 56.756C49.426 56.764 49.478 56.776 49.526 56.792C49.582 56.8 49.63 56.804 49.67 56.804C49.926 56.804 50.13 56.708 50.282 56.516C50.442 56.324 50.562 56.068 50.642 55.748C50.722 55.428 50.778 55.068 50.81 54.668C50.842 54.26 50.87 53.852 50.894 53.444L51.002 51.2H55.622V57.5H54.77V51.692L54.986 51.944H51.554L51.758 51.68L51.662 53.504C51.638 54.048 51.594 54.568 51.53 55.064C51.474 55.56 51.382 55.996 51.254 56.372C51.134 56.748 50.966 57.044 50.75 57.26C50.534 57.468 50.258 57.572 49.922 57.572C49.826 57.572 49.726 57.564 49.622 57.548C49.526 57.532 49.422 57.512 49.31 57.488ZM60.744 57.56C60.088 57.56 59.512 57.424 59.016 57.152C58.52 56.872 58.132 56.492 57.852 56.012C57.572 55.524 57.432 54.968 57.432 54.344C57.432 53.72 57.564 53.168 57.828 52.688C58.1 52.208 58.468 51.832 58.932 51.56C59.404 51.28 59.932 51.14 60.516 51.14C61.108 51.14 61.632 51.276 62.088 51.548C62.552 51.812 62.916 52.188 63.18 52.676C63.444 53.156 63.576 53.712 63.576 54.344C63.576 54.384 63.572 54.428 63.564 54.476C63.564 54.516 63.564 54.56 63.564 54.608H58.08V53.972H63.108L62.772 54.224C62.772 53.768 62.672 53.364 62.472 53.012C62.28 52.652 62.016 52.372 61.68 52.172C61.344 51.972 60.956 51.872 60.516 51.872C60.084 51.872 59.696 51.972 59.352 52.172C59.008 52.372 58.74 52.652 58.548 53.012C58.356 53.372 58.26 53.784 58.26 54.248V54.38C58.26 54.86 58.364 55.284 58.572 55.652C58.788 56.012 59.084 56.296 59.46 56.504C59.844 56.704 60.28 56.804 60.768 56.804C61.152 56.804 61.508 56.736 61.836 56.6C62.172 56.464 62.46 56.256 62.7 55.976L63.18 56.528C62.9 56.864 62.548 57.12 62.124 57.296C61.708 57.472 61.248 57.56 60.744 57.56ZM65.462 57.5V51.2H66.314V53.984H70.286V51.2H71.138V57.5H70.286V54.716H66.314V57.5H65.462ZM73.5597 57.5V51.2H74.4117V56.204L78.6237 51.2H79.3797V57.5H78.5277V52.484L74.3277 57.5H73.5597ZM85.8894 57.5V55.232L86.0454 55.412H83.9094C83.1014 55.412 82.4694 55.236 82.0134 54.884C81.5574 54.532 81.3294 54.02 81.3294 53.348C81.3294 52.628 81.5734 52.092 82.0614 51.74C82.5494 51.38 83.2014 51.2 84.0174 51.2H86.6694V57.5H85.8894ZM81.2814 57.5L83.0094 55.076H83.8974L82.2054 57.5H81.2814ZM85.8894 54.98V51.692L86.0454 51.944H84.0414C83.4574 51.944 83.0014 52.056 82.6734 52.28C82.3534 52.504 82.1934 52.868 82.1934 53.372C82.1934 54.308 82.7894 54.776 83.9814 54.776H86.0454L85.8894 54.98Z" fill="#A6A6A6"/>
</svg>
