<svg width="122" height="112" viewBox="0 0 122 112" fill="none" xmlns="http://www.w3.org/2000/svg">
<g filter="url(#filter0_dd_263_3335)">
<rect x="15" y="20" width="82" height="72" rx="8" fill="white"/>
<g clip-path="url(#clip0_263_3335)">
<path d="M56 46.5C57.6569 46.5 59 45.1569 59 43.5C59 41.8431 57.6569 40.5 56 40.5C54.3431 40.5 53 41.8431 53 43.5C53 45.1569 54.3431 46.5 56 46.5Z" stroke="#3993C3" stroke-width="1.5"/>
<path opacity="0.5" d="M57.765 33.652C57.398 33.5 56.932 33.5 56 33.5C55.068 33.5 54.602 33.5 54.235 33.652C53.9921 33.7525 53.7715 33.8999 53.5857 34.0857C53.3999 34.2716 53.2525 34.4922 53.152 34.735C53.06 34.958 53.023 35.219 53.009 35.598C53.0027 35.872 52.927 36.1399 52.7888 36.3766C52.6506 36.6132 52.4545 36.8109 52.219 36.951C51.9799 37.085 51.7106 37.1561 51.4365 37.1575C51.1624 37.1589 50.8924 37.0906 50.652 36.959C50.316 36.781 50.073 36.683 49.832 36.651C49.3063 36.5819 48.7747 36.7243 48.354 37.047C48.04 37.29 47.806 37.693 47.34 38.5C46.874 39.307 46.64 39.71 46.589 40.105C46.5546 40.3655 46.5719 40.6301 46.6398 40.8839C46.7078 41.1377 46.8251 41.3756 46.985 41.584C47.133 41.776 47.34 41.937 47.661 42.139C48.134 42.436 48.438 42.942 48.438 43.5C48.438 44.058 48.134 44.564 47.661 44.86C47.34 45.063 47.132 45.224 46.985 45.416C46.8251 45.6244 46.7078 45.8623 46.6398 46.1161C46.5719 46.3699 46.5546 46.6345 46.589 46.895C46.641 47.289 46.874 47.693 47.339 48.5C47.806 49.307 48.039 49.71 48.354 49.953C48.5624 50.1129 48.8003 50.2302 49.0541 50.2981C49.3078 50.3661 49.5725 50.3834 49.833 50.349C50.073 50.317 50.316 50.219 50.652 50.041C50.8924 49.9094 51.1624 49.8411 51.4365 49.8425C51.7106 49.8439 51.9799 49.915 52.219 50.049C52.702 50.329 52.989 50.844 53.009 51.402C53.023 51.782 53.059 52.042 53.152 52.265C53.2525 52.5078 53.3999 52.7284 53.5857 52.9143C53.7715 53.1001 53.9921 53.2475 54.235 53.348C54.602 53.5 55.068 53.5 56 53.5C56.932 53.5 57.398 53.5 57.765 53.348C58.0078 53.2475 58.2284 53.1001 58.4142 52.9143C58.6001 52.7284 58.7474 52.5078 58.848 52.265C58.94 52.042 58.977 51.782 58.991 51.402C59.011 50.844 59.298 50.328 59.781 50.049C60.0201 49.915 60.2893 49.8439 60.5634 49.8425C60.8375 49.8411 61.1075 49.9094 61.348 50.041C61.684 50.219 61.927 50.317 62.167 50.349C62.4274 50.3834 62.6921 50.3661 62.9459 50.2981C63.1996 50.2302 63.4375 50.1129 63.646 49.953C63.961 49.711 64.194 49.307 64.66 48.5C65.126 47.693 65.36 47.29 65.411 46.895C65.4453 46.6345 65.428 46.3699 65.3601 46.1161C65.2921 45.8623 65.1749 45.6244 65.015 45.416C64.867 45.224 64.66 45.063 64.339 44.861C64.1047 44.7186 63.9105 44.519 63.7746 44.2809C63.6386 44.0428 63.5655 43.7741 63.562 43.5C63.562 42.942 63.866 42.436 64.339 42.14C64.66 41.937 64.868 41.776 65.015 41.584C65.1749 41.3756 65.2921 41.1377 65.3601 40.8839C65.428 40.6301 65.4453 40.3655 65.411 40.105C65.359 39.711 65.126 39.307 64.661 38.5C64.194 37.693 63.961 37.29 63.646 37.047C63.4375 36.8871 63.1996 36.7698 62.9459 36.7019C62.6921 36.6339 62.4274 36.6166 62.167 36.651C61.927 36.683 61.684 36.781 61.347 36.959C61.1066 37.0904 60.8368 37.1586 60.5629 37.1572C60.289 37.1558 60.0199 37.0849 59.781 36.951C59.5454 36.8109 59.3493 36.6132 59.2112 36.3766C59.073 36.1399 58.9972 35.872 58.991 35.598C58.977 35.218 58.941 34.958 58.848 34.735C58.7474 34.4922 58.6001 34.2716 58.4142 34.0857C58.2284 33.8999 58.0078 33.7525 57.765 33.652Z" stroke="#3993C3" stroke-width="1.5"/>
</g>
<path d="M29.06 69.1H29.936V77.5H29.06V69.1ZM23.804 77.5H22.916V69.1H23.804V77.5ZM29.144 73.624H23.708V72.844H29.144V73.624ZM36.4795 77.5V76.108L36.4435 75.88V73.552C36.4435 73.016 36.2915 72.604 35.9875 72.316C35.6915 72.028 35.2475 71.884 34.6555 71.884C34.2475 71.884 33.8595 71.952 33.4915 72.088C33.1235 72.224 32.8115 72.404 32.5555 72.628L32.1715 71.992C32.4915 71.72 32.8755 71.512 33.3235 71.368C33.7715 71.216 34.2435 71.14 34.7395 71.14C35.5555 71.14 36.1835 71.344 36.6235 71.752C37.0715 72.152 37.2955 72.764 37.2955 73.588V77.5H36.4795ZM34.3075 77.56C33.8355 77.56 33.4235 77.484 33.0715 77.332C32.7275 77.172 32.4635 76.956 32.2795 76.684C32.0955 76.404 32.0035 76.084 32.0035 75.724C32.0035 75.396 32.0795 75.1 32.2315 74.836C32.3915 74.564 32.6475 74.348 32.9995 74.188C33.3595 74.02 33.8395 73.936 34.4395 73.936H36.6115V74.572H34.4635C33.8555 74.572 33.4315 74.68 33.1915 74.896C32.9595 75.112 32.8435 75.38 32.8435 75.7C32.8435 76.06 32.9835 76.348 33.2635 76.564C33.5435 76.78 33.9355 76.888 34.4395 76.888C34.9195 76.888 35.3315 76.78 35.6755 76.564C36.0275 76.34 36.2835 76.02 36.4435 75.604L36.6355 76.192C36.4755 76.608 36.1955 76.94 35.7955 77.188C35.4035 77.436 34.9075 77.56 34.3075 77.56ZM42.2036 77.56C41.5796 77.56 41.0196 77.424 40.5236 77.152C40.0356 76.872 39.6516 76.492 39.3716 76.012C39.0916 75.524 38.9516 74.968 38.9516 74.344C38.9516 73.712 39.0916 73.156 39.3716 72.676C39.6516 72.196 40.0356 71.82 40.5236 71.548C41.0196 71.276 41.5796 71.14 42.2036 71.14C42.7396 71.14 43.2236 71.244 43.6556 71.452C44.0876 71.66 44.4276 71.972 44.6756 72.388L44.0396 72.82C43.8236 72.5 43.5556 72.264 43.2356 72.112C42.9156 71.96 42.5676 71.884 42.1916 71.884C41.7436 71.884 41.3396 71.988 40.9796 72.196C40.6196 72.396 40.3356 72.68 40.1276 73.048C39.9196 73.416 39.8156 73.848 39.8156 74.344C39.8156 74.84 39.9196 75.272 40.1276 75.64C40.3356 76.008 40.6196 76.296 40.9796 76.504C41.3396 76.704 41.7436 76.804 42.1916 76.804C42.5676 76.804 42.9156 76.728 43.2356 76.576C43.5556 76.424 43.8236 76.192 44.0396 75.88L44.6756 76.312C44.4276 76.72 44.0876 77.032 43.6556 77.248C43.2236 77.456 42.7396 77.56 42.2036 77.56ZM47.4081 77.5V71.716L47.6241 71.944H45.0201V71.2H50.6481V71.944H48.0441L48.2601 71.716V77.5H47.4081ZM55.132 77.56C54.588 77.56 54.096 77.436 53.656 77.188C53.216 76.932 52.864 76.568 52.6 76.096C52.344 75.616 52.216 75.032 52.216 74.344C52.216 73.656 52.344 73.076 52.6 72.604C52.856 72.124 53.204 71.76 53.644 71.512C54.084 71.264 54.58 71.14 55.132 71.14C55.732 71.14 56.268 71.276 56.74 71.548C57.22 71.812 57.596 72.188 57.868 72.676C58.14 73.156 58.276 73.712 58.276 74.344C58.276 74.984 58.14 75.544 57.868 76.024C57.596 76.504 57.22 76.88 56.74 77.152C56.268 77.424 55.732 77.56 55.132 77.56ZM51.88 79.828V71.2H52.696V73.096L52.612 74.356L52.732 75.628V79.828H51.88ZM55.072 76.804C55.52 76.804 55.92 76.704 56.272 76.504C56.624 76.296 56.904 76.008 57.112 75.64C57.32 75.264 57.424 74.832 57.424 74.344C57.424 73.856 57.32 73.428 57.112 73.06C56.904 72.692 56.624 72.404 56.272 72.196C55.92 71.988 55.52 71.884 55.072 71.884C54.624 71.884 54.22 71.988 53.86 72.196C53.508 72.404 53.228 72.692 53.02 73.06C52.82 73.428 52.72 73.856 52.72 74.344C52.72 74.832 52.82 75.264 53.02 75.64C53.228 76.008 53.508 76.296 53.86 76.504C54.22 76.704 54.624 76.804 55.072 76.804ZM62.6985 77.56C62.0905 77.56 61.5425 77.424 61.0545 77.152C60.5745 76.872 60.1945 76.492 59.9145 76.012C59.6345 75.524 59.4945 74.968 59.4945 74.344C59.4945 73.712 59.6345 73.156 59.9145 72.676C60.1945 72.196 60.5745 71.82 61.0545 71.548C61.5345 71.276 62.0825 71.14 62.6985 71.14C63.3225 71.14 63.8745 71.276 64.3545 71.548C64.8425 71.82 65.2225 72.196 65.4945 72.676C65.7745 73.156 65.9145 73.712 65.9145 74.344C65.9145 74.968 65.7745 75.524 65.4945 76.012C65.2225 76.492 64.8425 76.872 64.3545 77.152C63.8665 77.424 63.3145 77.56 62.6985 77.56ZM62.6985 76.804C63.1545 76.804 63.5585 76.704 63.9105 76.504C64.2625 76.296 64.5385 76.008 64.7385 75.64C64.9465 75.264 65.0505 74.832 65.0505 74.344C65.0505 73.848 64.9465 73.416 64.7385 73.048C64.5385 72.68 64.2625 72.396 63.9105 72.196C63.5585 71.988 63.1585 71.884 62.7105 71.884C62.2625 71.884 61.8625 71.988 61.5105 72.196C61.1585 72.396 60.8785 72.68 60.6705 73.048C60.4625 73.416 60.3585 73.848 60.3585 74.344C60.3585 74.832 60.4625 75.264 60.6705 75.64C60.8785 76.008 61.1585 76.296 61.5105 76.504C61.8625 76.704 62.2585 76.804 62.6985 76.804ZM67.7354 77.5V71.2H68.5874V76.204L72.7994 71.2H73.5554V77.5H72.7034V72.484L68.5034 77.5H67.7354ZM70.5914 70.288C70.0634 70.288 69.6354 70.156 69.3074 69.892C68.9874 69.62 68.8194 69.232 68.8034 68.728H69.4154C69.4234 69.048 69.5354 69.3 69.7514 69.484C69.9674 69.668 70.2474 69.76 70.5914 69.76C70.9354 69.76 71.2154 69.668 71.4314 69.484C71.6554 69.3 71.7714 69.048 71.7794 68.728H72.3914C72.3834 69.232 72.2154 69.62 71.8874 69.892C71.5594 70.156 71.1274 70.288 70.5914 70.288ZM80.6172 77.5L78.0252 74.38L78.7332 73.96L81.6252 77.5H80.6172ZM75.9972 77.5V71.2H76.8492V77.5H75.9972ZM76.5852 74.692V73.96H78.6132V74.692H76.5852ZM78.8052 74.44L78.0132 74.32L80.5212 71.2H81.4452L78.8052 74.44ZM82.9698 77.5V71.2H83.8218V76.204L88.0338 71.2H88.7898V77.5H87.9378V72.484L83.7378 77.5H82.9698Z" fill="#3993C3"/>
</g>
<defs>
<filter id="filter0_dd_263_3335" x="0" y="0" width="122" height="112" filterUnits="userSpaceOnUse" color-interpolation-filters="sRGB">
<feFlood flood-opacity="0" result="BackgroundImageFix"/>
<feColorMatrix in="SourceAlpha" type="matrix" values="0 0 0 0 0 0 0 0 0 0 0 0 0 0 0 0 0 0 127 0" result="hardAlpha"/>
<feOffset dx="5"/>
<feGaussianBlur stdDeviation="10"/>
<feColorMatrix type="matrix" values="0 0 0 0 0 0 0 0 0 0 0 0 0 0 0 0 0 0 0.05 0"/>
<feBlend mode="normal" in2="BackgroundImageFix" result="effect1_dropShadow_263_3335"/>
<feColorMatrix in="SourceAlpha" type="matrix" values="0 0 0 0 0 0 0 0 0 0 0 0 0 0 0 0 0 0 127 0" result="hardAlpha"/>
<feOffset dx="5"/>
<feGaussianBlur stdDeviation="10"/>
<feColorMatrix type="matrix" values="0 0 0 0 0 0 0 0 0 0 0 0 0 0 0 0 0 0 0.05 0"/>
<feBlend mode="normal" in2="effect1_dropShadow_263_3335" result="effect2_dropShadow_263_3335"/>
<feBlend mode="normal" in="SourceGraphic" in2="effect2_dropShadow_263_3335" result="shape"/>
</filter>
<clipPath id="clip0_263_3335">
<rect width="24" height="24" fill="white" transform="translate(44 31.5)"/>
</clipPath>
</defs>
</svg>
