<svg width="82" height="72" viewBox="0 0 82 72" fill="none" xmlns="http://www.w3.org/2000/svg">
<rect width="82" height="72" rx="8" fill="white"/>
<g clip-path="url(#clip0_263_3324)">
<path d="M32 21.5H31.5C31.5 21.6326 31.5527 21.7598 31.6464 21.8536C31.7402 21.9473 31.8674 22 32 22V21.5ZM32 25.5V25C31.8674 25 31.7402 25.0527 31.6464 25.1464C31.5527 25.2402 31.5 25.3674 31.5 25.5H32ZM50 21.5V22C50.1326 22 50.2598 21.9473 50.3536 21.8536C50.4473 21.7598 50.5 21.6326 50.5 21.5H50ZM50 25.5H50.5C50.5 25.3674 50.4473 25.2402 50.3536 25.1464C50.2598 25.0527 50.1326 25 50 25V25.5ZM34 17H39V16H34V17ZM39 17H48V16H39V17ZM48 30H39V31H48V30ZM39 30H34V31H39V30ZM38.5 16.5V30.5H39.5V16.5H38.5ZM33.06 22.44C33.3409 22.7213 33.4987 23.1025 33.4987 23.5C33.4987 23.8975 33.3409 24.2787 33.06 24.56L33.768 25.268C34.0002 25.0358 34.1844 24.7602 34.3101 24.4569C34.4358 24.1535 34.5005 23.8284 34.5005 23.5C34.5005 23.1716 34.4358 22.8465 34.3101 22.5431C34.1844 22.2398 34.0002 21.9642 33.768 21.732L33.061 22.439L33.06 22.44ZM48.94 24.56C48.6591 24.2787 48.5013 23.8975 48.5013 23.5C48.5013 23.1025 48.6591 22.7213 48.94 22.44L48.232 21.732C47.9998 21.9642 47.8156 22.2398 47.6899 22.5431C47.5642 22.8465 47.4995 23.1716 47.4995 23.5C47.4995 23.8284 47.5642 24.1535 47.6899 24.4569C47.8156 24.7602 47.9998 25.0358 48.232 25.268L48.939 24.561L48.94 24.56ZM32 22C32.385 22 32.768 22.146 33.06 22.44L33.768 21.732C33.536 21.4996 33.2604 21.3153 32.957 21.1897C32.6536 21.0641 32.3284 20.9996 32 21V22ZM32.5 21.5V18.5H31.5V21.5H32.5ZM32.5 28.5V25.5H31.5V28.5H32.5ZM33.06 24.56C32.768 24.854 32.385 25 32 25V26C32.639 26 33.28 25.756 33.768 25.268L33.061 24.561L33.06 24.56ZM48.94 22.44C49.232 22.146 49.615 22 50 22V21C49.361 21 48.72 21.244 48.232 21.732L48.939 22.439L48.94 22.44ZM49.5 18.5V21.5H50.5V18.5H49.5ZM49.5 25.5V28.5H50.5V25.5H49.5ZM50 25C49.615 25 49.232 24.854 48.94 24.56L48.232 25.268C48.464 25.5004 48.7396 25.6847 49.043 25.8103C49.3464 25.9359 49.6716 26.0004 50 26V25ZM34 30C33.6022 30 33.2206 29.842 32.9393 29.5607C32.658 29.2794 32.5 28.8978 32.5 28.5H31.5C31.5 29.163 31.7634 29.7989 32.2322 30.2678C32.7011 30.7366 33.337 31 34 31V30ZM48 31C48.663 31 49.2989 30.7366 49.7678 30.2678C50.2366 29.7989 50.5 29.163 50.5 28.5H49.5C49.5 28.8978 49.342 29.2794 49.0607 29.5607C48.7794 29.842 48.3978 30 48 30V31ZM48 17C48.3978 17 48.7794 17.158 49.0607 17.4393C49.342 17.7206 49.5 18.1022 49.5 18.5H50.5C50.5 17.837 50.2366 17.2011 49.7678 16.7322C49.2989 16.2634 48.663 16 48 16V17ZM34 16C33.337 16 32.7011 16.2634 32.2322 16.7322C31.7634 17.2011 31.5 17.837 31.5 18.5H32.5C32.5 18.1022 32.658 17.7206 32.9393 17.4393C33.2206 17.158 33.6022 17 34 17V16Z" fill="#A6A6A6"/>
</g>
<path d="M4.416 57.5V49.1H5.148L8.988 55.652H8.604L12.408 49.1H13.14V57.5H12.288V50.432H12.492L8.988 56.432H8.568L5.04 50.432H5.268V57.5H4.416ZM18.3587 57.56C17.7507 57.56 17.2027 57.424 16.7147 57.152C16.2347 56.872 15.8547 56.492 15.5747 56.012C15.2947 55.524 15.1547 54.968 15.1547 54.344C15.1547 53.712 15.2947 53.156 15.5747 52.676C15.8547 52.196 16.2347 51.82 16.7147 51.548C17.1947 51.276 17.7427 51.14 18.3587 51.14C18.9827 51.14 19.5347 51.276 20.0147 51.548C20.5027 51.82 20.8827 52.196 21.1547 52.676C21.4347 53.156 21.5747 53.712 21.5747 54.344C21.5747 54.968 21.4347 55.524 21.1547 56.012C20.8827 56.492 20.5027 56.872 20.0147 57.152C19.5267 57.424 18.9747 57.56 18.3587 57.56ZM18.3587 56.804C18.8147 56.804 19.2187 56.704 19.5707 56.504C19.9227 56.296 20.1987 56.008 20.3987 55.64C20.6067 55.264 20.7107 54.832 20.7107 54.344C20.7107 53.848 20.6067 53.416 20.3987 53.048C20.1987 52.68 19.9227 52.396 19.5707 52.196C19.2187 51.988 18.8187 51.884 18.3707 51.884C17.9227 51.884 17.5227 51.988 17.1707 52.196C16.8187 52.396 16.5387 52.68 16.3307 53.048C16.1227 53.416 16.0187 53.848 16.0187 54.344C16.0187 54.832 16.1227 55.264 16.3307 55.64C16.5387 56.008 16.8187 56.296 17.1707 56.504C17.5227 56.704 17.9187 56.804 18.3587 56.804ZM23.3956 57.5V51.2H24.2476V56.204L28.4596 51.2H29.2156V57.5H28.3636V52.484L24.1636 57.5H23.3956ZM35.9979 57.5V51.716L36.2139 51.944H33.6099V51.2H39.2379V51.944H36.6339L36.8499 51.716V57.5H35.9979ZM44.3818 57.5V56.108L44.3458 55.88V53.552C44.3458 53.016 44.1938 52.604 43.8898 52.316C43.5938 52.028 43.1498 51.884 42.5578 51.884C42.1498 51.884 41.7618 51.952 41.3938 52.088C41.0258 52.224 40.7138 52.404 40.4578 52.628L40.0738 51.992C40.3938 51.72 40.7778 51.512 41.2258 51.368C41.6738 51.216 42.1458 51.14 42.6418 51.14C43.4578 51.14 44.0858 51.344 44.5258 51.752C44.9738 52.152 45.1978 52.764 45.1978 53.588V57.5H44.3818ZM42.2098 57.56C41.7378 57.56 41.3258 57.484 40.9738 57.332C40.6298 57.172 40.3658 56.956 40.1818 56.684C39.9978 56.404 39.9058 56.084 39.9058 55.724C39.9058 55.396 39.9818 55.1 40.1338 54.836C40.2938 54.564 40.5498 54.348 40.9018 54.188C41.2618 54.02 41.7418 53.936 42.3418 53.936H44.5138V54.572H42.3658C41.7578 54.572 41.3338 54.68 41.0938 54.896C40.8618 55.112 40.7458 55.38 40.7458 55.7C40.7458 56.06 40.8858 56.348 41.1658 56.564C41.4458 56.78 41.8378 56.888 42.3418 56.888C42.8218 56.888 43.2338 56.78 43.5778 56.564C43.9298 56.34 44.1858 56.02 44.3458 55.604L44.5378 56.192C44.3778 56.608 44.0978 56.94 43.6978 57.188C43.3058 57.436 42.8098 57.56 42.2098 57.56ZM46.3139 57.488L46.3739 56.756C46.4299 56.764 46.4819 56.776 46.5299 56.792C46.5859 56.8 46.6339 56.804 46.6739 56.804C46.9299 56.804 47.1339 56.708 47.2859 56.516C47.4459 56.324 47.5659 56.068 47.6459 55.748C47.7259 55.428 47.7819 55.068 47.8139 54.668C47.8459 54.26 47.8739 53.852 47.8979 53.444L48.0059 51.2H52.6259V57.5H51.7739V51.692L51.9899 51.944H48.5579L48.7619 51.68L48.6659 53.504C48.6419 54.048 48.5979 54.568 48.5339 55.064C48.4779 55.56 48.3859 55.996 48.2579 56.372C48.1379 56.748 47.9699 57.044 47.7539 57.26C47.5379 57.468 47.2619 57.572 46.9259 57.572C46.8299 57.572 46.7299 57.564 46.6259 57.548C46.5299 57.532 46.4259 57.512 46.3139 57.488ZM57.6399 57.56C57.0319 57.56 56.4839 57.424 55.9959 57.152C55.5159 56.872 55.1359 56.492 54.8559 56.012C54.5759 55.524 54.4359 54.968 54.4359 54.344C54.4359 53.712 54.5759 53.156 54.8559 52.676C55.1359 52.196 55.5159 51.82 55.9959 51.548C56.4759 51.276 57.0239 51.14 57.6399 51.14C58.2639 51.14 58.8159 51.276 59.2959 51.548C59.7839 51.82 60.1639 52.196 60.4359 52.676C60.7159 53.156 60.8559 53.712 60.8559 54.344C60.8559 54.968 60.7159 55.524 60.4359 56.012C60.1639 56.492 59.7839 56.872 59.2959 57.152C58.8079 57.424 58.2559 57.56 57.6399 57.56ZM57.6399 56.804C58.0959 56.804 58.4999 56.704 58.8519 56.504C59.2039 56.296 59.4799 56.008 59.6799 55.64C59.8879 55.264 59.9919 54.832 59.9919 54.344C59.9919 53.848 59.8879 53.416 59.6799 53.048C59.4799 52.68 59.2039 52.396 58.8519 52.196C58.4999 51.988 58.0999 51.884 57.6519 51.884C57.2039 51.884 56.8039 51.988 56.4519 52.196C56.0999 52.396 55.8199 52.68 55.6119 53.048C55.4039 53.416 55.2999 53.848 55.2999 54.344C55.2999 54.832 55.4039 55.264 55.6119 55.64C55.8199 56.008 56.0999 56.296 56.4519 56.504C56.8039 56.704 57.1999 56.804 57.6399 56.804ZM62.6768 57.5V51.2H63.5288V53.984H67.5008V51.2H68.3528V57.5H67.5008V54.716H63.5288V57.5H62.6768ZM76.9185 57.5V51.2H77.7705V57.5H76.9185ZM73.4265 53.42C74.2185 53.428 74.8225 53.604 75.2385 53.948C75.6545 54.292 75.8625 54.788 75.8625 55.436C75.8625 56.108 75.6385 56.624 75.1905 56.984C74.7425 57.344 74.1025 57.52 73.2705 57.512L70.7745 57.5V51.2H71.6265V53.396L73.4265 53.42ZM73.2105 56.864C73.8025 56.872 74.2465 56.756 74.5425 56.516C74.8465 56.268 74.9985 55.908 74.9985 55.436C74.9985 54.964 74.8505 54.62 74.5545 54.404C74.2585 54.18 73.8105 54.064 73.2105 54.056L71.6265 54.032V56.84L73.2105 56.864Z" fill="black" fill-opacity="0.35"/>
<defs>
<clipPath id="clip0_263_3324">
<rect width="24" height="24" fill="white" transform="translate(29 11.5)"/>
</clipPath>
</defs>
</svg>
