<svg width="132" height="112" viewBox="0 0 132 112" fill="none" xmlns="http://www.w3.org/2000/svg">
<g filter="url(#filter0_dd_263_3299)">
<rect x="25" y="20" width="82" height="72" rx="8" fill="white"/>
<g clip-path="url(#clip0_263_3299)">
<path d="M57 41.5H56.5C56.5 41.6326 56.5527 41.7598 56.6464 41.8536C56.7402 41.9473 56.8674 42 57 42V41.5ZM57 45.5V45C56.8674 45 56.7402 45.0527 56.6464 45.1464C56.5527 45.2402 56.5 45.3674 56.5 45.5H57ZM75 41.5V42C75.1326 42 75.2598 41.9473 75.3536 41.8536C75.4473 41.7598 75.5 41.6326 75.5 41.5H75ZM75 45.5H75.5C75.5 45.3674 75.4473 45.2402 75.3536 45.1464C75.2598 45.0527 75.1326 45 75 45V45.5ZM59 37H64V36H59V37ZM64 37H73V36H64V37ZM73 50H64V51H73V50ZM64 50H59V51H64V50ZM63.5 36.5V50.5H64.5V36.5H63.5ZM58.06 42.44C58.3409 42.7213 58.4987 43.1025 58.4987 43.5C58.4987 43.8975 58.3409 44.2787 58.06 44.56L58.768 45.268C59.0002 45.0358 59.1844 44.7602 59.3101 44.4569C59.4358 44.1535 59.5005 43.8284 59.5005 43.5C59.5005 43.1716 59.4358 42.8465 59.3101 42.5431C59.1844 42.2398 59.0002 41.9642 58.768 41.732L58.061 42.439L58.06 42.44ZM73.94 44.56C73.6591 44.2787 73.5013 43.8975 73.5013 43.5C73.5013 43.1025 73.6591 42.7213 73.94 42.44L73.232 41.732C72.9998 41.9642 72.8156 42.2398 72.6899 42.5431C72.5642 42.8465 72.4995 43.1716 72.4995 43.5C72.4995 43.8284 72.5642 44.1535 72.6899 44.4569C72.8156 44.7602 72.9998 45.0358 73.232 45.268L73.939 44.561L73.94 44.56ZM57 42C57.385 42 57.768 42.146 58.06 42.44L58.768 41.732C58.536 41.4996 58.2604 41.3153 57.957 41.1897C57.6536 41.0641 57.3284 40.9996 57 41V42ZM57.5 41.5V38.5H56.5V41.5H57.5ZM57.5 48.5V45.5H56.5V48.5H57.5ZM58.06 44.56C57.768 44.854 57.385 45 57 45V46C57.639 46 58.28 45.756 58.768 45.268L58.061 44.561L58.06 44.56ZM73.94 42.44C74.232 42.146 74.615 42 75 42V41C74.361 41 73.72 41.244 73.232 41.732L73.939 42.439L73.94 42.44ZM74.5 38.5V41.5H75.5V38.5H74.5ZM74.5 45.5V48.5H75.5V45.5H74.5ZM75 45C74.615 45 74.232 44.854 73.94 44.56L73.232 45.268C73.464 45.5004 73.7396 45.6847 74.043 45.8103C74.3464 45.9359 74.6716 46.0004 75 46V45ZM59 50C58.6022 50 58.2206 49.842 57.9393 49.5607C57.658 49.2794 57.5 48.8978 57.5 48.5H56.5C56.5 49.163 56.7634 49.7989 57.2322 50.2678C57.7011 50.7366 58.337 51 59 51V50ZM73 51C73.663 51 74.2989 50.7366 74.7678 50.2678C75.2366 49.7989 75.5 49.163 75.5 48.5H74.5C74.5 48.8978 74.342 49.2794 74.0607 49.5607C73.7794 49.842 73.3978 50 73 50V51ZM73 37C73.3978 37 73.7794 37.158 74.0607 37.4393C74.342 37.7206 74.5 38.1022 74.5 38.5H75.5C75.5 37.837 75.2366 37.2011 74.7678 36.7322C74.2989 36.2634 73.663 36 73 36V37ZM59 36C58.337 36 57.7011 36.2634 57.2322 36.7322C56.7634 37.2011 56.5 37.837 56.5 38.5H57.5C57.5 38.1022 57.658 37.7206 57.9393 37.4393C58.2206 37.158 58.6022 37 59 37V36Z" fill="#3993C3"/>
</g>
<path d="M29.416 77.5V69.1H30.148L33.988 75.652H33.604L37.408 69.1H38.14V77.5H37.288V70.432H37.492L33.988 76.432H33.568L30.04 70.432H30.268V77.5H29.416ZM43.3587 77.56C42.7507 77.56 42.2027 77.424 41.7147 77.152C41.2347 76.872 40.8547 76.492 40.5747 76.012C40.2947 75.524 40.1547 74.968 40.1547 74.344C40.1547 73.712 40.2947 73.156 40.5747 72.676C40.8547 72.196 41.2347 71.82 41.7147 71.548C42.1947 71.276 42.7427 71.14 43.3587 71.14C43.9827 71.14 44.5347 71.276 45.0147 71.548C45.5027 71.82 45.8827 72.196 46.1547 72.676C46.4347 73.156 46.5747 73.712 46.5747 74.344C46.5747 74.968 46.4347 75.524 46.1547 76.012C45.8827 76.492 45.5027 76.872 45.0147 77.152C44.5267 77.424 43.9747 77.56 43.3587 77.56ZM43.3587 76.804C43.8147 76.804 44.2187 76.704 44.5707 76.504C44.9227 76.296 45.1987 76.008 45.3987 75.64C45.6067 75.264 45.7107 74.832 45.7107 74.344C45.7107 73.848 45.6067 73.416 45.3987 73.048C45.1987 72.68 44.9227 72.396 44.5707 72.196C44.2187 71.988 43.8187 71.884 43.3707 71.884C42.9227 71.884 42.5227 71.988 42.1707 72.196C41.8187 72.396 41.5387 72.68 41.3307 73.048C41.1227 73.416 41.0187 73.848 41.0187 74.344C41.0187 74.832 41.1227 75.264 41.3307 75.64C41.5387 76.008 41.8187 76.296 42.1707 76.504C42.5227 76.704 42.9187 76.804 43.3587 76.804ZM48.3956 77.5V71.2H49.2476V76.204L53.4596 71.2H54.2156V77.5H53.3636V72.484L49.1636 77.5H48.3956ZM60.9979 77.5V71.716L61.2139 71.944H58.6099V71.2H64.2379V71.944H61.6339L61.8499 71.716V77.5H60.9979ZM69.3818 77.5V76.108L69.3458 75.88V73.552C69.3458 73.016 69.1938 72.604 68.8898 72.316C68.5938 72.028 68.1498 71.884 67.5578 71.884C67.1498 71.884 66.7618 71.952 66.3938 72.088C66.0258 72.224 65.7138 72.404 65.4578 72.628L65.0738 71.992C65.3938 71.72 65.7778 71.512 66.2258 71.368C66.6738 71.216 67.1458 71.14 67.6418 71.14C68.4578 71.14 69.0858 71.344 69.5258 71.752C69.9738 72.152 70.1978 72.764 70.1978 73.588V77.5H69.3818ZM67.2098 77.56C66.7378 77.56 66.3258 77.484 65.9738 77.332C65.6298 77.172 65.3658 76.956 65.1818 76.684C64.9978 76.404 64.9058 76.084 64.9058 75.724C64.9058 75.396 64.9818 75.1 65.1338 74.836C65.2938 74.564 65.5498 74.348 65.9018 74.188C66.2618 74.02 66.7418 73.936 67.3418 73.936H69.5138V74.572H67.3658C66.7578 74.572 66.3338 74.68 66.0938 74.896C65.8618 75.112 65.7458 75.38 65.7458 75.7C65.7458 76.06 65.8858 76.348 66.1658 76.564C66.4458 76.78 66.8378 76.888 67.3418 76.888C67.8218 76.888 68.2338 76.78 68.5778 76.564C68.9298 76.34 69.1858 76.02 69.3458 75.604L69.5378 76.192C69.3778 76.608 69.0978 76.94 68.6978 77.188C68.3058 77.436 67.8098 77.56 67.2098 77.56ZM71.3139 77.488L71.3739 76.756C71.4299 76.764 71.4819 76.776 71.5299 76.792C71.5859 76.8 71.6339 76.804 71.6739 76.804C71.9299 76.804 72.1339 76.708 72.2859 76.516C72.4459 76.324 72.5659 76.068 72.6459 75.748C72.7259 75.428 72.7819 75.068 72.8139 74.668C72.8459 74.26 72.8739 73.852 72.8979 73.444L73.0059 71.2H77.6259V77.5H76.7739V71.692L76.9899 71.944H73.5579L73.7619 71.68L73.6659 73.504C73.6419 74.048 73.5979 74.568 73.5339 75.064C73.4779 75.56 73.3859 75.996 73.2579 76.372C73.1379 76.748 72.9699 77.044 72.7539 77.26C72.5379 77.468 72.2619 77.572 71.9259 77.572C71.8299 77.572 71.7299 77.564 71.6259 77.548C71.5299 77.532 71.4259 77.512 71.3139 77.488ZM82.6399 77.56C82.0319 77.56 81.4839 77.424 80.9959 77.152C80.5159 76.872 80.1359 76.492 79.8559 76.012C79.5759 75.524 79.4359 74.968 79.4359 74.344C79.4359 73.712 79.5759 73.156 79.8559 72.676C80.1359 72.196 80.5159 71.82 80.9959 71.548C81.4759 71.276 82.0239 71.14 82.6399 71.14C83.2639 71.14 83.8159 71.276 84.2959 71.548C84.7839 71.82 85.1639 72.196 85.4359 72.676C85.7159 73.156 85.8559 73.712 85.8559 74.344C85.8559 74.968 85.7159 75.524 85.4359 76.012C85.1639 76.492 84.7839 76.872 84.2959 77.152C83.8079 77.424 83.2559 77.56 82.6399 77.56ZM82.6399 76.804C83.0959 76.804 83.4999 76.704 83.8519 76.504C84.2039 76.296 84.4799 76.008 84.6799 75.64C84.8879 75.264 84.9919 74.832 84.9919 74.344C84.9919 73.848 84.8879 73.416 84.6799 73.048C84.4799 72.68 84.2039 72.396 83.8519 72.196C83.4999 71.988 83.0999 71.884 82.6519 71.884C82.2039 71.884 81.8039 71.988 81.4519 72.196C81.0999 72.396 80.8199 72.68 80.6119 73.048C80.4039 73.416 80.2999 73.848 80.2999 74.344C80.2999 74.832 80.4039 75.264 80.6119 75.64C80.8199 76.008 81.0999 76.296 81.4519 76.504C81.8039 76.704 82.1999 76.804 82.6399 76.804ZM87.6768 77.5V71.2H88.5288V73.984H92.5008V71.2H93.3528V77.5H92.5008V74.716H88.5288V77.5H87.6768ZM101.919 77.5V71.2H102.771V77.5H101.919ZM98.4265 73.42C99.2185 73.428 99.8225 73.604 100.239 73.948C100.655 74.292 100.863 74.788 100.863 75.436C100.863 76.108 100.639 76.624 100.191 76.984C99.7425 77.344 99.1025 77.52 98.2705 77.512L95.7745 77.5V71.2H96.6265V73.396L98.4265 73.42ZM98.2105 76.864C98.8025 76.872 99.2465 76.756 99.5425 76.516C99.8465 76.268 99.9985 75.908 99.9985 75.436C99.9985 74.964 99.8505 74.62 99.5545 74.404C99.2585 74.18 98.8105 74.064 98.2105 74.056L96.6265 74.032V76.84L98.2105 76.864Z" fill="#3993C3"/>
</g>
<defs>
<filter id="filter0_dd_263_3299" x="0" y="0" width="132" height="112" filterUnits="userSpaceOnUse" color-interpolation-filters="sRGB">
<feFlood flood-opacity="0" result="BackgroundImageFix"/>
<feColorMatrix in="SourceAlpha" type="matrix" values="0 0 0 0 0 0 0 0 0 0 0 0 0 0 0 0 0 0 127 0" result="hardAlpha"/>
<feOffset dx="5"/>
<feGaussianBlur stdDeviation="10"/>
<feColorMatrix type="matrix" values="0 0 0 0 0 0 0 0 0 0 0 0 0 0 0 0 0 0 0.05 0"/>
<feBlend mode="normal" in2="BackgroundImageFix" result="effect1_dropShadow_263_3299"/>
<feColorMatrix in="SourceAlpha" type="matrix" values="0 0 0 0 0 0 0 0 0 0 0 0 0 0 0 0 0 0 127 0" result="hardAlpha"/>
<feOffset dx="-5"/>
<feGaussianBlur stdDeviation="10"/>
<feColorMatrix type="matrix" values="0 0 0 0 0 0 0 0 0 0 0 0 0 0 0 0 0 0 0.05 0"/>
<feBlend mode="normal" in2="effect1_dropShadow_263_3299" result="effect2_dropShadow_263_3299"/>
<feBlend mode="normal" in="SourceGraphic" in2="effect2_dropShadow_263_3299" result="shape"/>
</filter>
<clipPath id="clip0_263_3299">
<rect width="24" height="24" fill="white" transform="translate(54 31.5)"/>
</clipPath>
</defs>
</svg>
