<svg width="171" height="59" viewBox="0 0 171 59" fill="none" xmlns="http://www.w3.org/2000/svg">
<g filter="url(#filter0_d_253_1931)">
<path d="M62.6904 29.5025L62.468 29.8553L62.2456 29.5025L61.7778 28.7603L61.6895 28.6202L61.7778 28.48L63.8572 25.1811L61.7778 21.8821L61.6895 21.742L61.7778 21.6018L62.2456 20.8596L62.468 20.5068L62.6904 20.8596L65.3259 25.0409L65.4142 25.1811L65.3259 25.3212L62.6904 29.5025Z" fill="#0174B1" stroke="#0174B1" stroke-width="0.525734"/>
<path d="M25.4273 27.3809H21.0249V24.7559H25.4273C26.1382 24.7559 26.717 24.651 27.1636 24.4414C27.6193 24.2318 27.952 23.9492 28.1616 23.5937C28.3804 23.2292 28.4898 22.819 28.4898 22.3633C28.4898 21.8893 28.3804 21.4518 28.1616 21.0508C27.952 20.6497 27.6193 20.3262 27.1636 20.0801C26.717 19.8249 26.1382 19.6973 25.4273 19.6973H22.1323V33H18.8374V17.0723H25.4273C26.7671 17.0723 27.911 17.3001 28.8589 17.7559C29.8068 18.2116 30.5269 18.8359 31.0191 19.6289C31.5204 20.4128 31.771 21.3151 31.771 22.3359C31.771 23.1016 31.6297 23.7943 31.3472 24.4141C31.0646 25.0339 30.6499 25.5671 30.103 26.0137C29.5562 26.4512 28.8908 26.7884 28.107 27.0254C27.3231 27.2624 26.4299 27.3809 25.4273 27.3809ZM43.3145 27.6953H46.623C46.541 28.7799 46.222 29.737 45.666 30.5664C45.1191 31.3958 44.3535 32.0475 43.3691 32.5215C42.3848 32.9863 41.1953 33.2188 39.8008 33.2188C38.7161 33.2188 37.7409 33.041 36.875 32.6855C36.0182 32.3301 35.2845 31.8242 34.6738 31.168C34.0723 30.5026 33.6074 29.7005 33.2793 28.7617C32.9603 27.8138 32.8008 26.752 32.8008 25.5762V24.5098C32.8008 23.334 32.9648 22.2767 33.293 21.3379C33.6211 20.39 34.0951 19.5833 34.7148 18.918C35.3346 18.2435 36.0729 17.7331 36.9297 17.3867C37.7956 17.0312 38.7663 16.8535 39.8418 16.8535C41.2546 16.8535 42.444 17.0951 43.4102 17.5781C44.3763 18.0521 45.1283 18.7129 45.666 19.5605C46.2038 20.4082 46.5273 21.3789 46.6367 22.4727H43.3418C43.2871 21.8802 43.1367 21.3607 42.8906 20.9141C42.6445 20.4583 42.2754 20.1029 41.7832 19.8477C41.291 19.5924 40.6439 19.4648 39.8418 19.4648C39.222 19.4648 38.6797 19.5742 38.2148 19.793C37.75 20.0026 37.3581 20.3216 37.0391 20.75C36.7292 21.1784 36.4922 21.707 36.3281 22.3359C36.1732 22.9557 36.0957 23.6758 36.0957 24.4961V25.5762C36.0957 26.3783 36.1641 27.0937 36.3008 27.7227C36.4466 28.3424 36.6699 28.8665 36.9707 29.2949C37.2715 29.7233 37.6543 30.0514 38.1191 30.2793C38.5931 30.498 39.1536 30.6074 39.8008 30.6074C40.5755 30.6074 41.209 30.5026 41.7012 30.293C42.1934 30.0742 42.5716 29.7461 42.8359 29.3086C43.1003 28.8711 43.2598 28.3333 43.3145 27.6953ZM51.4126 17.0723V33H48.104V17.0723H51.4126ZM60.9145 17.0723L54.4067 26.5469H50.647L50.2095 23.6348H52.8618L57.0591 17.0723H60.9145ZM57.2778 33L52.561 25.9863L54.8852 23.8945L61.3794 33H57.2778Z" fill="#0174B1"/>
<path d="M91.1841 17.0723V33H87.8892V17.0723H91.1841ZM96.4888 17.0723V19.6973H82.6528V17.0723H96.4888ZM101.183 17.0723V33H97.874V17.0723H101.183ZM113.628 27.6953H116.937C116.855 28.7799 116.536 29.737 115.98 30.5664C115.433 31.3958 114.667 32.0475 113.683 32.5215C112.699 32.9863 111.509 33.2187 110.115 33.2187C109.03 33.2187 108.055 33.041 107.189 32.6855C106.332 32.3301 105.598 31.8242 104.988 31.168C104.386 30.5026 103.921 29.7005 103.593 28.7617C103.274 27.8138 103.115 26.752 103.115 25.5762V24.5098C103.115 23.334 103.279 22.2767 103.607 21.3379C103.935 20.39 104.409 19.5833 105.029 18.918C105.649 18.2435 106.387 17.7331 107.244 17.3867C108.11 17.0312 109.08 16.8535 110.156 16.8535C111.568 16.8535 112.758 17.0951 113.724 17.5781C114.69 18.0521 115.442 18.7129 115.98 19.5605C116.518 20.4082 116.841 21.3789 116.951 22.4727H113.656C113.601 21.8802 113.451 21.3607 113.205 20.9141C112.958 20.4583 112.589 20.1029 112.097 19.8477C111.605 19.5924 110.958 19.4648 110.156 19.4648C109.536 19.4648 108.994 19.5742 108.529 19.793C108.064 20.0026 107.672 20.3216 107.353 20.75C107.043 21.1784 106.806 21.707 106.642 22.3359C106.487 22.9557 106.41 23.6758 106.41 24.4961V25.5762C106.41 26.3783 106.478 27.0937 106.615 27.7227C106.761 28.3424 106.984 28.8665 107.285 29.2949C107.585 29.7233 107.968 30.0514 108.433 30.2793C108.907 30.498 109.468 30.6074 110.115 30.6074C110.889 30.6074 111.523 30.5026 112.015 30.293C112.507 30.0742 112.886 29.7461 113.15 29.3086C113.414 28.8711 113.574 28.3333 113.628 27.6953ZM121.713 17.0723V33H118.418V17.0723H121.713ZM131.926 17.0723L125.144 24.9746L121.316 28.707L120.551 25.6172L123.258 22.3086L127.824 17.0723H131.926ZM128.275 33L123.012 25.6582L125.418 23.6211L132.213 33H128.275ZM144.098 30.3887V33H134.979V30.3887H144.098ZM136.018 17.0723V33H132.723V17.0723H136.018ZM142.922 23.457V26.0684H134.979V23.457H142.922ZM144.071 17.0723V19.6973H134.979V17.0723H144.071ZM152.729 17.0723V33H149.434V17.0723H152.729ZM158.034 17.0723V19.6973H144.198V17.0723H158.034Z" fill="#878787"/>
<path d="M6 8.5C6 4.9039 8.90372 2 12.4444 2H71.5556C75.0963 2 78 4.9039 78 8.5V17C78 17.0079 77.9994 17.0197 77.989 17.0443C77.977 17.0726 77.9489 17.1238 77.8883 17.1911C77.7592 17.3345 77.5391 17.4866 77.2678 17.5826C74.0015 18.7209 71.6667 21.8437 71.6667 25.5C71.6667 29.1561 74.0013 32.2789 77.2674 33.4173C77.5389 33.5132 77.7592 33.6654 77.8883 33.8089C77.9489 33.8762 77.977 33.9274 77.989 33.9557C77.9923 33.9635 77.9946 33.9701 77.9962 33.9756C77.9997 33.9874 78 33.9946 78 34V42.5C78 46.0961 75.0963 49 71.5556 49H12.4444C8.90372 49 6 46.0961 6 42.5V34C6 33.9921 6.0006 33.9803 6.01104 33.9557C6.02303 33.9274 6.05114 33.8762 6.1117 33.8089C6.24088 33.6654 6.46129 33.5131 6.73292 33.4172C9.99884 32.2787 12.3333 29.156 12.3333 25.5C12.3333 21.8438 9.99864 18.7211 6.73251 17.5827C6.46106 17.4868 6.24082 17.3346 6.1117 17.1911C6.05114 17.1238 6.02303 17.0726 6.01104 17.0443C6.0006 17.0197 6 17.0079 6 17V8.5Z" stroke="#0174B1" stroke-width="4"/>
</g>
<defs>
<filter id="filter0_d_253_1931" x="0" y="0" width="162.034" height="59" filterUnits="userSpaceOnUse" color-interpolation-filters="sRGB">
<feFlood flood-opacity="0" result="BackgroundImageFix"/>
<feColorMatrix in="SourceAlpha" type="matrix" values="0 0 0 0 0 0 0 0 0 0 0 0 0 0 0 0 0 0 127 0" result="hardAlpha"/>
<feOffset dy="4"/>
<feGaussianBlur stdDeviation="2"/>
<feComposite in2="hardAlpha" operator="out"/>
<feColorMatrix type="matrix" values="0 0 0 0 0.508333 0 0 0 0 0.493507 0 0 0 0 0.493507 0 0 0 0.25 0"/>
<feBlend mode="normal" in2="BackgroundImageFix" result="effect1_dropShadow_253_1931"/>
<feBlend mode="normal" in="SourceGraphic" in2="effect1_dropShadow_253_1931" result="shape"/>
</filter>
</defs>
</svg>
