<svg width="430" height="932" viewBox="0 0 430 932" fill="none" xmlns="http://www.w3.org/2000/svg">
<g clip-path="url(#clip0_230_2339)">
<rect width="430" height="932" rx="32" fill="white"/>
<path d="M-188 561C-188 561 -153 732.5 137.5 668C428 603.5 459.326 -14 459.326 -14L473.114 1065H-19L-188 561Z" fill="#007CFF" fill-opacity="0.2"/>
<path d="M-150.5 511.5C-150.5 511.5 -3.76758 848.25 271.616 633.625C547 419 617 519 617 519L611.522 1059H-68.2892L-150.5 511.5Z" fill="#006CB5" fill-opacity="0.7"/>
<path d="M594 288C594 288 559 116.5 268.5 181C-22 245.5 -53.3265 863 -53.3265 863L-67.1136 -216H425L594 288Z" fill="#007CFF" fill-opacity="0.2"/>
<path d="M556.5 337.5C556.5 337.5 409.768 0.750366 134.384 215.375C-141 430 -211 330 -211 330L-205.522 -210H474.289L556.5 337.5Z" fill="#006CB5" fill-opacity="0.7"/>
<g filter="url(#filter0_d_230_2339)">
<path d="M175.968 472.75L175.593 473.344L175.218 472.75L174.429 471.498L174.28 471.262L174.429 471.025L177.935 465.462L174.429 459.899L174.28 459.663L174.429 459.427L175.218 458.175L175.593 457.58L175.968 458.175L180.412 465.226L180.561 465.462L180.412 465.699L175.968 472.75Z" fill="#0174B1" stroke="#0174B1" stroke-width="0.886531"/>
<path d="M113.132 469.328H105.708V464.902H113.132C114.331 464.902 115.307 464.725 116.06 464.372C116.828 464.018 117.389 463.542 117.743 462.942C118.112 462.327 118.296 461.636 118.296 460.867C118.296 460.068 118.112 459.33 117.743 458.654C117.389 457.978 116.828 457.432 116.06 457.017C115.307 456.587 114.331 456.372 113.132 456.372H107.576V478.804H102.02V451.945H113.132C115.391 451.945 117.32 452.329 118.919 453.098C120.517 453.866 121.731 454.919 122.561 456.256C123.407 457.578 123.829 459.1 123.829 460.821C123.829 462.112 123.591 463.28 123.115 464.325C122.638 465.371 121.939 466.27 121.017 467.023C120.095 467.761 118.973 468.329 117.651 468.729C116.329 469.128 114.823 469.328 113.132 469.328ZM143.295 469.859H148.874C148.736 471.688 148.198 473.301 147.26 474.7C146.338 476.099 145.047 477.198 143.387 477.997C141.727 478.781 139.721 479.173 137.37 479.173C135.541 479.173 133.896 478.873 132.436 478.273C130.991 477.674 129.754 476.821 128.724 475.714C127.71 474.592 126.926 473.24 126.373 471.657C125.835 470.058 125.566 468.268 125.566 466.285V464.487C125.566 462.504 125.842 460.721 126.396 459.138C126.949 457.54 127.748 456.18 128.793 455.058C129.839 453.92 131.084 453.059 132.528 452.475C133.988 451.876 135.625 451.576 137.439 451.576C139.821 451.576 141.827 451.984 143.456 452.798C145.085 453.597 146.353 454.712 147.26 456.141C148.167 457.57 148.713 459.207 148.897 461.052H143.341C143.249 460.053 142.995 459.177 142.58 458.424C142.165 457.655 141.543 457.056 140.713 456.625C139.883 456.195 138.791 455.98 137.439 455.98C136.394 455.98 135.479 456.164 134.695 456.533C133.912 456.887 133.251 457.424 132.713 458.147C132.19 458.869 131.791 459.761 131.514 460.821C131.253 461.866 131.122 463.081 131.122 464.464V466.285C131.122 467.638 131.237 468.844 131.468 469.905C131.714 470.95 132.09 471.834 132.597 472.556C133.105 473.278 133.75 473.832 134.534 474.216C135.333 474.585 136.279 474.769 137.37 474.769C138.676 474.769 139.744 474.592 140.574 474.239C141.404 473.87 142.042 473.317 142.488 472.579C142.934 471.841 143.203 470.934 143.295 469.859ZM156.95 451.945V478.804H151.371V451.945H156.95ZM172.973 451.945L161.999 467.922H155.659L154.922 463.011H159.394L166.472 451.945H172.973ZM166.841 478.804L158.887 466.977L162.806 463.449L173.757 478.804H166.841Z" fill="#0174B1"/>
<path d="M224.016 451.945V478.804H218.46V451.945H224.016ZM232.961 451.945V456.372H209.63V451.945H232.961ZM240.876 451.945V478.804H235.297V451.945H240.876ZM261.863 469.859H267.443C267.304 471.688 266.766 473.301 265.829 474.7C264.907 476.099 263.616 477.198 261.956 477.997C260.296 478.781 258.29 479.173 255.938 479.173C254.109 479.173 252.465 478.873 251.005 478.273C249.56 477.674 248.323 476.821 247.293 475.714C246.279 474.592 245.495 473.24 244.941 471.657C244.403 470.058 244.134 468.268 244.134 466.285V464.487C244.134 462.504 244.411 460.721 244.964 459.138C245.518 457.54 246.317 456.18 247.362 455.058C248.407 453.92 249.652 453.059 251.097 452.475C252.557 451.876 254.194 451.576 256.008 451.576C258.39 451.576 260.396 451.984 262.025 452.798C263.654 453.597 264.922 454.712 265.829 456.141C266.736 457.57 267.281 459.207 267.466 461.052H261.91C261.817 460.053 261.564 459.177 261.149 458.424C260.734 457.655 260.111 457.056 259.281 456.625C258.451 456.195 257.36 455.98 256.008 455.98C254.962 455.98 254.048 456.164 253.264 456.533C252.48 456.887 251.819 457.424 251.281 458.147C250.759 458.869 250.359 459.761 250.083 460.821C249.821 461.866 249.691 463.081 249.691 464.464V466.285C249.691 467.638 249.806 468.844 250.036 469.905C250.282 470.95 250.659 471.834 251.166 472.556C251.673 473.278 252.319 473.832 253.103 474.216C253.902 474.585 254.847 474.769 255.938 474.769C257.245 474.769 258.313 474.592 259.143 474.239C259.973 473.87 260.611 473.317 261.056 472.579C261.502 471.841 261.771 470.934 261.863 469.859ZM275.496 451.945V478.804H269.94V451.945H275.496ZM292.718 451.945L281.283 465.271L274.827 471.565L273.536 466.354L278.101 460.775L285.801 451.945H292.718ZM286.562 478.804L277.686 466.423L281.744 462.988L293.202 478.804H286.562ZM313.244 474.4V478.804H297.866V474.4H313.244ZM299.618 451.945V478.804H294.062V451.945H299.618ZM311.261 462.712V467.115H297.866V462.712H311.261ZM313.198 451.945V456.372H297.866V451.945H313.198ZM327.798 451.945V478.804H322.242V451.945H327.798ZM336.744 451.945V456.372H313.412V451.945H336.744Z" fill="#878787"/>
<path d="M80.3725 437.333C80.3725 431.269 85.269 426.373 91.2397 426.373H190.917C196.888 426.373 201.784 431.269 201.784 437.333V451.667C201.784 451.68 201.783 451.7 201.766 451.741C201.745 451.789 201.698 451.875 201.596 451.989C201.378 452.231 201.007 452.488 200.549 452.649C195.041 454.569 191.105 459.835 191.105 466C191.105 472.165 195.041 477.431 200.548 479.35C201.006 479.512 201.378 479.769 201.596 480.011C201.698 480.125 201.745 480.211 201.766 480.259C201.783 480.3 201.784 480.32 201.784 480.333V494.667C201.784 500.731 196.888 505.627 190.917 505.627H91.2397C85.269 505.627 80.3725 500.731 80.3725 494.667V480.333C80.3725 480.32 80.3736 480.3 80.3912 480.259C80.4114 480.211 80.4588 480.125 80.5609 480.011C80.7787 479.769 81.1504 479.512 81.6085 479.351C87.1157 477.431 91.0523 472.165 91.0523 466C91.0523 459.835 87.1155 454.569 81.6081 452.649C81.1502 452.488 80.7787 452.231 80.5609 451.989C80.4588 451.875 80.4114 451.789 80.3912 451.741C80.3736 451.7 80.3725 451.68 80.3725 451.667V437.333Z" stroke="#0174B1" stroke-width="6.7451"/>
</g>
</g>
<defs>
<filter id="filter0_d_230_2339" x="70.2549" y="423" width="273.233" height="99.4902" filterUnits="userSpaceOnUse" color-interpolation-filters="sRGB">
<feFlood flood-opacity="0" result="BackgroundImageFix"/>
<feColorMatrix in="SourceAlpha" type="matrix" values="0 0 0 0 0 0 0 0 0 0 0 0 0 0 0 0 0 0 127 0" result="hardAlpha"/>
<feOffset dy="6.7451"/>
<feGaussianBlur stdDeviation="3.37255"/>
<feComposite in2="hardAlpha" operator="out"/>
<feColorMatrix type="matrix" values="0 0 0 0 0.508333 0 0 0 0 0.493507 0 0 0 0 0.493507 0 0 0 0.25 0"/>
<feBlend mode="normal" in2="BackgroundImageFix" result="effect1_dropShadow_230_2339"/>
<feBlend mode="normal" in="SourceGraphic" in2="effect1_dropShadow_230_2339" result="shape"/>
</filter>
<clipPath id="clip0_230_2339">
<rect width="430" height="932" rx="32" fill="white"/>
</clipPath>
</defs>
</svg>
