<svg width="178" height="28" viewBox="0 0 178 28" fill="none" xmlns="http://www.w3.org/2000/svg">
<g filter="url(#filter0_d_253_2707)">
<path d="M7.132 3.644L6.232 7.298L6.016 6.254C6.364 6.254 6.652 6.362 6.88 6.578C7.108 6.794 7.222 7.082 7.222 7.442C7.222 7.802 7.108 8.096 6.88 8.324C6.652 8.552 6.37 8.666 6.034 8.666C5.686 8.666 5.398 8.552 5.17 8.324C4.942 8.084 4.828 7.79 4.828 7.442C4.828 7.322 4.834 7.208 4.846 7.1C4.87 6.992 4.906 6.866 4.954 6.722C5.002 6.566 5.068 6.38 5.152 6.164L5.998 3.644H7.132ZM10.534 3.644L9.634 7.298L9.418 6.254C9.766 6.254 10.054 6.362 10.282 6.578C10.51 6.794 10.624 7.082 10.624 7.442C10.624 7.802 10.51 8.096 10.282 8.324C10.054 8.552 9.772 8.666 9.436 8.666C9.088 8.666 8.8 8.552 8.572 8.324C8.344 8.084 8.23 7.79 8.23 7.442C8.23 7.322 8.236 7.208 8.248 7.1C8.272 6.992 8.308 6.866 8.356 6.722C8.404 6.566 8.47 6.38 8.554 6.164L9.4 3.644H10.534ZM13.4503 17V4.4H15.2323V14.12L22.6843 4.4H24.3403V17H22.5763V7.298L15.1063 17H13.4503ZM27.9806 17V7.46H29.7086V11.51H35.1446V7.46H36.8726V17H35.1446V13.004H29.7086V17H27.9806ZM40.2326 17V7.46H44.6606C45.7766 7.46 46.6526 7.676 47.2886 8.108C47.9366 8.528 48.2606 9.128 48.2606 9.908C48.2606 10.688 47.9546 11.294 47.3426 11.726C46.7426 12.146 45.9446 12.356 44.9486 12.356L45.2186 11.888C46.3586 11.888 47.2046 12.098 47.7566 12.518C48.3086 12.938 48.5846 13.556 48.5846 14.372C48.5846 15.2 48.2726 15.848 47.6486 16.316C47.0366 16.772 46.0946 17 44.8226 17H40.2326ZM41.9246 15.668H44.6966C45.4166 15.668 45.9566 15.56 46.3166 15.344C46.6766 15.116 46.8566 14.756 46.8566 14.264C46.8566 13.76 46.6886 13.394 46.3526 13.166C46.0286 12.926 45.5126 12.806 44.8046 12.806H41.9246V15.668ZM41.9246 11.564H44.5166C45.1766 11.564 45.6746 11.444 46.0106 11.204C46.3586 10.952 46.5326 10.604 46.5326 10.16C46.5326 9.704 46.3586 9.362 46.0106 9.134C45.6746 8.906 45.1766 8.792 44.5166 8.792H41.9246V11.564ZM57.1392 17V14.984L57.0492 14.606V11.168C57.0492 10.436 56.8332 9.872 56.4012 9.476C55.9812 9.068 55.3452 8.864 54.4932 8.864C53.9292 8.864 53.3772 8.96 52.8372 9.152C52.2972 9.332 51.8412 9.578 51.4692 9.89L50.7492 8.594C51.2412 8.198 51.8292 7.898 52.5132 7.694C53.2092 7.478 53.9352 7.37 54.6912 7.37C55.9992 7.37 57.0072 7.688 57.7152 8.324C58.4232 8.96 58.7772 9.932 58.7772 11.24V17H57.1392ZM54.0072 17.108C53.2992 17.108 52.6752 16.988 52.1352 16.748C51.6072 16.508 51.1992 16.178 50.9112 15.758C50.6232 15.326 50.4792 14.84 50.4792 14.3C50.4792 13.784 50.5992 13.316 50.8392 12.896C51.0912 12.476 51.4932 12.14 52.0452 11.888C52.6092 11.636 53.3652 11.51 54.3132 11.51H57.3372V12.752H54.3852C53.5212 12.752 52.9392 12.896 52.6392 13.184C52.3392 13.472 52.1892 13.82 52.1892 14.228C52.1892 14.696 52.3752 15.074 52.7472 15.362C53.1192 15.638 53.6352 15.776 54.2952 15.776C54.9432 15.776 55.5072 15.632 55.9872 15.344C56.4792 15.056 56.8332 14.636 57.0492 14.084L57.3912 15.272C57.1632 15.836 56.7612 16.286 56.1852 16.622C55.6092 16.946 54.8832 17.108 54.0072 17.108ZM60.3048 16.982L60.4128 15.524C60.4968 15.536 60.5748 15.548 60.6468 15.56C60.7188 15.572 60.7848 15.578 60.8448 15.578C61.2288 15.578 61.5288 15.446 61.7448 15.182C61.9728 14.918 62.1408 14.57 62.2488 14.138C62.3568 13.694 62.4348 13.196 62.4828 12.644C62.5308 12.092 62.5668 11.54 62.5908 10.988L62.7528 7.46H70.0788V17H68.3508V8.468L68.7648 8.972H63.8688L64.2648 8.45L64.1388 11.096C64.1028 11.936 64.0368 12.722 63.9408 13.454C63.8448 14.186 63.6948 14.828 63.4908 15.38C63.2988 15.932 63.0288 16.364 62.6808 16.676C62.3448 16.988 61.9068 17.144 61.3668 17.144C61.2108 17.144 61.0428 17.126 60.8628 17.09C60.6948 17.066 60.5088 17.03 60.3048 16.982ZM73.4201 17V7.46H75.1481V14.408L80.9981 7.46H82.5641V17H80.8361V10.052L75.0041 17H73.4201ZM92.4341 16.19V8.972H88.2941L88.2041 10.808C88.1801 11.408 88.1381 11.99 88.0781 12.554C88.0301 13.106 87.9461 13.616 87.8261 14.084C87.7181 14.552 87.5561 14.936 87.3401 15.236C87.1241 15.536 86.8361 15.722 86.4761 15.794L84.7661 15.488C85.1381 15.5 85.4381 15.38 85.6661 15.128C85.8941 14.864 86.0681 14.504 86.1881 14.048C86.3201 13.592 86.4161 13.076 86.4761 12.5C86.5361 11.912 86.5841 11.306 86.6201 10.682L86.7641 7.46H94.1621V16.19H92.4341ZM84.3881 19.214V15.488H95.6201V19.214H94.0001V17H86.0261V19.214H84.3881ZM97.8713 17V7.46H99.5993V11.51H105.035V7.46H106.763V17H105.035V13.004H99.5993V17H97.8713ZM114.209 17.108C113.249 17.108 112.397 16.898 111.653 16.478C110.909 16.058 110.321 15.482 109.889 14.75C109.457 14.006 109.241 13.166 109.241 12.23C109.241 11.282 109.457 10.442 109.889 9.71C110.321 8.978 110.909 8.408 111.653 8C112.397 7.58 113.249 7.37 114.209 7.37C115.157 7.37 116.003 7.58 116.747 8C117.503 8.408 118.091 8.978 118.511 9.71C118.943 10.43 119.159 11.27 119.159 12.23C119.159 13.178 118.943 14.018 118.511 14.75C118.091 15.482 117.503 16.058 116.747 16.478C116.003 16.898 115.157 17.108 114.209 17.108ZM114.209 15.596C114.821 15.596 115.367 15.458 115.847 15.182C116.339 14.906 116.723 14.516 116.999 14.012C117.275 13.496 117.413 12.902 117.413 12.23C117.413 11.546 117.275 10.958 116.999 10.466C116.723 9.962 116.339 9.572 115.847 9.296C115.367 9.02 114.821 8.882 114.209 8.882C113.597 8.882 113.051 9.02 112.571 9.296C112.091 9.572 111.707 9.962 111.419 10.466C111.131 10.958 110.987 11.546 110.987 12.23C110.987 12.902 111.131 13.496 111.419 14.012C111.707 14.516 112.091 14.906 112.571 15.182C113.051 15.458 113.597 15.596 114.209 15.596ZM125.812 17.108C124.84 17.108 123.97 16.898 123.202 16.478C122.446 16.058 121.852 15.482 121.42 14.75C120.988 14.018 120.772 13.178 120.772 12.23C120.772 11.282 120.988 10.442 121.42 9.71C121.852 8.978 122.446 8.408 123.202 8C123.97 7.58 124.84 7.37 125.812 7.37C126.676 7.37 127.444 7.544 128.116 7.892C128.8 8.228 129.328 8.732 129.7 9.404L128.386 10.25C128.074 9.782 127.69 9.44 127.234 9.224C126.79 8.996 126.31 8.882 125.794 8.882C125.17 8.882 124.612 9.02 124.12 9.296C123.628 9.572 123.238 9.962 122.95 10.466C122.662 10.958 122.518 11.546 122.518 12.23C122.518 12.914 122.662 13.508 122.95 14.012C123.238 14.516 123.628 14.906 124.12 15.182C124.612 15.458 125.17 15.596 125.794 15.596C126.31 15.596 126.79 15.488 127.234 15.272C127.69 15.044 128.074 14.696 128.386 14.228L129.7 15.056C129.328 15.716 128.8 16.226 128.116 16.586C127.444 16.934 126.676 17.108 125.812 17.108ZM133.705 17V8.522L134.137 8.972H130.213V7.46H138.925V8.972H135.019L135.433 8.522V17H133.705ZM145.102 10.7C146.314 10.712 147.238 10.988 147.874 11.528C148.51 12.068 148.828 12.83 148.828 13.814C148.828 14.846 148.48 15.644 147.784 16.208C147.088 16.76 146.104 17.03 144.832 17.018L140.692 17V7.46H142.42V10.682L145.102 10.7ZM144.688 15.704C145.468 15.716 146.056 15.56 146.452 15.236C146.86 14.912 147.064 14.432 147.064 13.796C147.064 13.172 146.866 12.716 146.47 12.428C146.074 12.14 145.48 11.99 144.688 11.978L142.42 11.942V15.686L144.688 15.704ZM149.534 8.558L150.434 4.904L150.668 5.948C150.32 5.948 150.026 5.84 149.786 5.624C149.558 5.408 149.444 5.12 149.444 4.76C149.444 4.388 149.558 4.094 149.786 3.878C150.026 3.65 150.314 3.536 150.65 3.536C150.998 3.536 151.28 3.656 151.496 3.896C151.712 4.124 151.82 4.412 151.82 4.76C151.82 4.868 151.814 4.982 151.802 5.102C151.79 5.21 151.76 5.336 151.712 5.48C151.676 5.624 151.616 5.81 151.532 6.038L150.668 8.558H149.534ZM152.936 8.558L153.836 4.904L154.07 5.948C153.722 5.948 153.428 5.84 153.188 5.624C152.96 5.408 152.846 5.12 152.846 4.76C152.846 4.388 152.96 4.094 153.188 3.878C153.428 3.65 153.716 3.536 154.052 3.536C154.4 3.536 154.682 3.656 154.898 3.896C155.114 4.124 155.222 4.412 155.222 4.76C155.222 4.868 155.216 4.982 155.204 5.102C155.192 5.21 155.162 5.336 155.114 5.48C155.078 5.624 155.018 5.81 154.934 6.038L154.07 8.558H152.936Z" fill="#3993C3"/>
</g>
<defs>
<filter id="filter0_d_253_2707" x="0.827881" y="3.53613" width="158.394" height="23.6777" filterUnits="userSpaceOnUse" color-interpolation-filters="sRGB">
<feFlood flood-opacity="0" result="BackgroundImageFix"/>
<feColorMatrix in="SourceAlpha" type="matrix" values="0 0 0 0 0 0 0 0 0 0 0 0 0 0 0 0 0 0 127 0" result="hardAlpha"/>
<feOffset dy="4"/>
<feGaussianBlur stdDeviation="2"/>
<feComposite in2="hardAlpha" operator="out"/>
<feColorMatrix type="matrix" values="0 0 0 0 0 0 0 0 0 0 0 0 0 0 0 0 0 0 0.25 0"/>
<feBlend mode="normal" in2="BackgroundImageFix" result="effect1_dropShadow_253_2707"/>
<feBlend mode="normal" in="SourceGraphic" in2="effect1_dropShadow_253_2707" result="shape"/>
</filter>
</defs>
</svg>
