<svg width="174" height="22" viewBox="0 0 174 22" fill="none" xmlns="http://www.w3.org/2000/svg">
<path d="M3.132 3.644L2.232 7.298L2.016 6.254C2.364 6.254 2.652 6.362 2.88 6.578C3.108 6.794 3.222 7.082 3.222 7.442C3.222 7.802 3.108 8.096 2.88 8.324C2.652 8.552 2.37 8.666 2.034 8.666C1.686 8.666 1.398 8.552 1.17 8.324C0.942 8.084 0.828 7.79 0.828 7.442C0.828 7.322 0.834 7.208 0.846 7.1C0.87 6.992 0.906 6.866 0.954 6.722C1.002 6.566 1.068 6.38 1.152 6.164L1.998 3.644H3.132ZM6.534 3.644L5.634 7.298L5.418 6.254C5.766 6.254 6.054 6.362 6.282 6.578C6.51 6.794 6.624 7.082 6.624 7.442C6.624 7.802 6.51 8.096 6.282 8.324C6.054 8.552 5.772 8.666 5.436 8.666C5.088 8.666 4.8 8.552 4.572 8.324C4.344 8.084 4.23 7.79 4.23 7.442C4.23 7.322 4.236 7.208 4.248 7.1C4.272 6.992 4.308 6.866 4.356 6.722C4.404 6.566 4.47 6.38 4.554 6.164L5.4 3.644H6.534ZM9.45028 17V4.4H20.3043V17H18.5403V5.498L18.9723 5.966H10.7823L11.2323 5.498V17H9.45028ZM28.1935 17.108C27.1735 17.108 26.2735 16.898 25.4935 16.478C24.7255 16.058 24.1255 15.482 23.6935 14.75C23.2735 14.018 23.0635 13.178 23.0635 12.23C23.0635 11.282 23.2675 10.442 23.6755 9.71C24.0955 8.978 24.6655 8.408 25.3855 8C26.1175 7.58 26.9395 7.37 27.8515 7.37C28.7755 7.37 29.5915 7.574 30.2995 7.982C31.0075 8.39 31.5595 8.966 31.9555 9.71C32.3635 10.442 32.5675 11.3 32.5675 12.284C32.5675 12.356 32.5615 12.44 32.5495 12.536C32.5495 12.632 32.5435 12.722 32.5315 12.806H24.4135V11.564H31.6315L30.9295 11.996C30.9415 11.384 30.8155 10.838 30.5515 10.358C30.2875 9.878 29.9215 9.506 29.4535 9.242C28.9975 8.966 28.4635 8.828 27.8515 8.828C27.2515 8.828 26.7175 8.966 26.2495 9.242C25.7815 9.506 25.4155 9.884 25.1515 10.376C24.8875 10.856 24.7555 11.408 24.7555 12.032V12.32C24.7555 12.956 24.8995 13.526 25.1875 14.03C25.4875 14.522 25.9015 14.906 26.4295 15.182C26.9575 15.458 27.5635 15.596 28.2475 15.596C28.8115 15.596 29.3215 15.5 29.7775 15.308C30.2455 15.116 30.6535 14.828 31.0015 14.444L31.9555 15.56C31.5235 16.064 30.9835 16.448 30.3355 16.712C29.6995 16.976 28.9855 17.108 28.1935 17.108ZM35.2482 17V7.46H36.9762V11.51H42.4122V7.46H44.1402V17H42.4122V13.004H36.9762V17H35.2482ZM51.6582 17.108C50.6862 17.108 49.8162 16.898 49.0482 16.478C48.2922 16.058 47.6982 15.482 47.2662 14.75C46.8342 14.018 46.6182 13.178 46.6182 12.23C46.6182 11.282 46.8342 10.442 47.2662 9.71C47.6982 8.978 48.2922 8.408 49.0482 8C49.8162 7.58 50.6862 7.37 51.6582 7.37C52.5222 7.37 53.2902 7.544 53.9622 7.892C54.6462 8.228 55.1742 8.732 55.5462 9.404L54.2322 10.25C53.9202 9.782 53.5362 9.44 53.0802 9.224C52.6362 8.996 52.1562 8.882 51.6402 8.882C51.0162 8.882 50.4582 9.02 49.9662 9.296C49.4742 9.572 49.0842 9.962 48.7962 10.466C48.5082 10.958 48.3642 11.546 48.3642 12.23C48.3642 12.914 48.5082 13.508 48.7962 14.012C49.0842 14.516 49.4742 14.906 49.9662 15.182C50.4582 15.458 51.0162 15.596 51.6402 15.596C52.1562 15.596 52.6362 15.488 53.0802 15.272C53.5362 15.044 53.9202 14.696 54.2322 14.228L55.5462 15.056C55.1742 15.716 54.6462 16.226 53.9622 16.586C53.2902 16.934 52.5222 17.108 51.6582 17.108ZM57.7834 17V7.46H59.5114V14.408L65.3614 7.46H66.9274V17H65.1994V10.052L59.3674 17H57.7834ZM74.3674 17.108C73.4074 17.108 72.5554 16.898 71.8114 16.478C71.0674 16.058 70.4794 15.482 70.0474 14.75C69.6154 14.006 69.3994 13.166 69.3994 12.23C69.3994 11.282 69.6154 10.442 70.0474 9.71C70.4794 8.978 71.0674 8.408 71.8114 8C72.5554 7.58 73.4074 7.37 74.3674 7.37C75.3154 7.37 76.1614 7.58 76.9054 8C77.6614 8.408 78.2494 8.978 78.6694 9.71C79.1014 10.43 79.3174 11.27 79.3174 12.23C79.3174 13.178 79.1014 14.018 78.6694 14.75C78.2494 15.482 77.6614 16.058 76.9054 16.478C76.1614 16.898 75.3154 17.108 74.3674 17.108ZM74.3674 15.596C74.9794 15.596 75.5254 15.458 76.0054 15.182C76.4974 14.906 76.8814 14.516 77.1574 14.012C77.4334 13.496 77.5714 12.902 77.5714 12.23C77.5714 11.546 77.4334 10.958 77.1574 10.466C76.8814 9.962 76.4974 9.572 76.0054 9.296C75.5254 9.02 74.9794 8.882 74.3674 8.882C73.7554 8.882 73.2094 9.02 72.7294 9.296C72.2494 9.572 71.8654 9.962 71.5774 10.466C71.2894 10.958 71.1454 11.546 71.1454 12.23C71.1454 12.902 71.2894 13.496 71.5774 14.012C71.8654 14.516 72.2494 14.906 72.7294 15.182C73.2094 15.458 73.7554 15.596 74.3674 15.596ZM81.8127 17V7.46H83.5407V11.51H88.9767V7.46H90.7047V17H88.9767V13.004H83.5407V17H81.8127ZM98.3126 17.108C97.2926 17.108 96.3926 16.898 95.6126 16.478C94.8446 16.058 94.2446 15.482 93.8126 14.75C93.3926 14.018 93.1826 13.178 93.1826 12.23C93.1826 11.282 93.3866 10.442 93.7946 9.71C94.2146 8.978 94.7846 8.408 95.5046 8C96.2366 7.58 97.0586 7.37 97.9706 7.37C98.8946 7.37 99.7106 7.574 100.419 7.982C101.127 8.39 101.679 8.966 102.075 9.71C102.483 10.442 102.687 11.3 102.687 12.284C102.687 12.356 102.681 12.44 102.669 12.536C102.669 12.632 102.663 12.722 102.651 12.806H94.5326V11.564H101.751L101.049 11.996C101.061 11.384 100.935 10.838 100.671 10.358C100.407 9.878 100.041 9.506 99.5726 9.242C99.1166 8.966 98.5826 8.828 97.9706 8.828C97.3706 8.828 96.8366 8.966 96.3686 9.242C95.9006 9.506 95.5346 9.884 95.2706 10.376C95.0066 10.856 94.8746 11.408 94.8746 12.032V12.32C94.8746 12.956 95.0186 13.526 95.3066 14.03C95.6066 14.522 96.0206 14.906 96.5486 15.182C97.0766 15.458 97.6826 15.596 98.3666 15.596C98.9306 15.596 99.4406 15.5 99.8966 15.308C100.365 15.116 100.773 14.828 101.121 14.444L102.075 15.56C101.643 16.064 101.103 16.448 100.455 16.712C99.8186 16.976 99.1046 17.108 98.3126 17.108ZM110.425 17.108C109.633 17.108 108.907 16.928 108.247 16.568C107.599 16.196 107.077 15.65 106.681 14.93C106.297 14.21 106.105 13.31 106.105 12.23C106.105 11.15 106.291 10.25 106.663 9.53C107.047 8.81 107.563 8.27 108.211 7.91C108.871 7.55 109.609 7.37 110.425 7.37C111.361 7.37 112.189 7.574 112.909 7.982C113.629 8.39 114.199 8.96 114.619 9.692C115.039 10.412 115.249 11.258 115.249 12.23C115.249 13.202 115.039 14.054 114.619 14.786C114.199 15.518 113.629 16.088 112.909 16.496C112.189 16.904 111.361 17.108 110.425 17.108ZM105.367 20.492V7.46H107.023V10.034L106.915 12.248L107.095 14.462V20.492H105.367ZM110.281 15.596C110.893 15.596 111.439 15.458 111.919 15.182C112.411 14.906 112.795 14.516 113.071 14.012C113.359 13.496 113.503 12.902 113.503 12.23C113.503 11.546 113.359 10.958 113.071 10.466C112.795 9.962 112.411 9.572 111.919 9.296C111.439 9.02 110.893 8.882 110.281 8.882C109.681 8.882 109.135 9.02 108.643 9.296C108.163 9.572 107.779 9.962 107.491 10.466C107.215 10.958 107.077 11.546 107.077 12.23C107.077 12.902 107.215 13.496 107.491 14.012C107.779 14.516 108.163 14.906 108.643 15.182C109.135 15.458 109.681 15.596 110.281 15.596ZM117.022 8.558L117.922 4.904L118.156 5.948C117.808 5.948 117.514 5.84 117.274 5.624C117.046 5.408 116.932 5.12 116.932 4.76C116.932 4.388 117.046 4.094 117.274 3.878C117.514 3.65 117.802 3.536 118.138 3.536C118.486 3.536 118.768 3.656 118.984 3.896C119.2 4.124 119.308 4.412 119.308 4.76C119.308 4.868 119.302 4.982 119.29 5.102C119.278 5.21 119.248 5.336 119.2 5.48C119.164 5.624 119.104 5.81 119.02 6.038L118.156 8.558H117.022ZM120.424 8.558L121.324 4.904L121.558 5.948C121.21 5.948 120.916 5.84 120.676 5.624C120.448 5.408 120.334 5.12 120.334 4.76C120.334 4.388 120.448 4.094 120.676 3.878C120.916 3.65 121.204 3.536 121.54 3.536C121.888 3.536 122.17 3.656 122.386 3.896C122.602 4.124 122.71 4.412 122.71 4.76C122.71 4.868 122.704 4.982 122.692 5.102C122.68 5.21 122.65 5.336 122.602 5.48C122.566 5.624 122.506 5.81 122.422 6.038L121.558 8.558H120.424Z" fill="#3993C3"/>
</svg>
