<svg width="174" height="22" viewBox="0 0 174 22" fill="none" xmlns="http://www.w3.org/2000/svg">
<path d="M3.132 3.644L2.232 7.298L2.016 6.254C2.364 6.254 2.652 6.362 2.88 6.578C3.108 6.794 3.222 7.082 3.222 7.442C3.222 7.802 3.108 8.096 2.88 8.324C2.652 8.552 2.37 8.666 2.034 8.666C1.686 8.666 1.398 8.552 1.17 8.324C0.942 8.084 0.828 7.79 0.828 7.442C0.828 7.322 0.834 7.208 0.846 7.1C0.87 6.992 0.906 6.866 0.954 6.722C1.002 6.566 1.068 6.38 1.152 6.164L1.998 3.644H3.132ZM6.534 3.644L5.634 7.298L5.418 6.254C5.766 6.254 6.054 6.362 6.282 6.578C6.51 6.794 6.624 7.082 6.624 7.442C6.624 7.802 6.51 8.096 6.282 8.324C6.054 8.552 5.772 8.666 5.436 8.666C5.088 8.666 4.8 8.552 4.572 8.324C4.344 8.084 4.23 7.79 4.23 7.442C4.23 7.322 4.236 7.208 4.248 7.1C4.272 6.992 4.308 6.866 4.356 6.722C4.404 6.566 4.47 6.38 4.554 6.164L5.4 3.644H6.534ZM9.45028 17V4.4H18.9543V5.93H11.2323V9.53H15.1563C16.6563 9.53 17.7963 9.842 18.5763 10.466C19.3563 11.09 19.7463 11.996 19.7463 13.184C19.7463 14.408 19.3203 15.35 18.4683 16.01C17.6283 16.67 16.4223 17 14.8503 17H9.45028ZM11.2323 15.578H14.7783C15.8223 15.578 16.6083 15.38 17.1363 14.984C17.6763 14.588 17.9463 14 17.9463 13.22C17.9463 11.708 16.8903 10.952 14.7783 10.952H11.2323V15.578ZM26.5763 17.108C25.5563 17.108 24.6563 16.898 23.8763 16.478C23.1083 16.058 22.5083 15.482 22.0763 14.75C21.6563 14.018 21.4463 13.178 21.4463 12.23C21.4463 11.282 21.6503 10.442 22.0583 9.71C22.4783 8.978 23.0483 8.408 23.7683 8C24.5003 7.58 25.3223 7.37 26.2343 7.37C27.1583 7.37 27.9743 7.574 28.6823 7.982C29.3903 8.39 29.9423 8.966 30.3383 9.71C30.7463 10.442 30.9503 11.3 30.9503 12.284C30.9503 12.356 30.9443 12.44 30.9323 12.536C30.9323 12.632 30.9263 12.722 30.9143 12.806H22.7963V11.564H30.0143L29.3123 11.996C29.3243 11.384 29.1983 10.838 28.9343 10.358C28.6703 9.878 28.3043 9.506 27.8363 9.242C27.3803 8.966 26.8463 8.828 26.2343 8.828C25.6343 8.828 25.1003 8.966 24.6323 9.242C24.1643 9.506 23.7983 9.884 23.5343 10.376C23.2703 10.856 23.1383 11.408 23.1383 12.032V12.32C23.1383 12.956 23.2823 13.526 23.5703 14.03C23.8703 14.522 24.2843 14.906 24.8123 15.182C25.3403 15.458 25.9463 15.596 26.6303 15.596C27.1943 15.596 27.7043 15.5 28.1603 15.308C28.6283 15.116 29.0363 14.828 29.3843 14.444L30.3383 15.56C29.9063 16.064 29.3663 16.448 28.7183 16.712C28.0823 16.976 27.3683 17.108 26.5763 17.108ZM38.689 17.108C37.897 17.108 37.171 16.928 36.511 16.568C35.863 16.196 35.341 15.65 34.945 14.93C34.561 14.21 34.369 13.31 34.369 12.23C34.369 11.15 34.555 10.25 34.927 9.53C35.311 8.81 35.827 8.27 36.475 7.91C37.135 7.55 37.873 7.37 38.689 7.37C39.625 7.37 40.453 7.574 41.173 7.982C41.893 8.39 42.463 8.96 42.883 9.692C43.303 10.412 43.513 11.258 43.513 12.23C43.513 13.202 43.303 14.054 42.883 14.786C42.463 15.518 41.893 16.088 41.173 16.496C40.453 16.904 39.625 17.108 38.689 17.108ZM33.631 20.492V7.46H35.287V10.034L35.179 12.248L35.359 14.462V20.492H33.631ZM38.545 15.596C39.157 15.596 39.703 15.458 40.183 15.182C40.675 14.906 41.059 14.516 41.335 14.012C41.623 13.496 41.767 12.902 41.767 12.23C41.767 11.546 41.623 10.958 41.335 10.466C41.059 9.962 40.675 9.572 40.183 9.296C39.703 9.02 39.157 8.882 38.545 8.882C37.945 8.882 37.399 9.02 36.907 9.296C36.427 9.572 36.043 9.962 35.755 10.466C35.479 10.958 35.341 11.546 35.341 12.23C35.341 12.902 35.479 13.496 35.755 14.012C36.043 14.516 36.427 14.906 36.907 15.182C37.399 15.458 37.945 15.596 38.545 15.596ZM50.2716 17.108C49.2516 17.108 48.3516 16.898 47.5716 16.478C46.8036 16.058 46.2036 15.482 45.7716 14.75C45.3516 14.018 45.1416 13.178 45.1416 12.23C45.1416 11.282 45.3456 10.442 45.7536 9.71C46.1736 8.978 46.7436 8.408 47.4636 8C48.1956 7.58 49.0176 7.37 49.9296 7.37C50.8536 7.37 51.6696 7.574 52.3776 7.982C53.0856 8.39 53.6376 8.966 54.0336 9.71C54.4416 10.442 54.6456 11.3 54.6456 12.284C54.6456 12.356 54.6396 12.44 54.6276 12.536C54.6276 12.632 54.6216 12.722 54.6096 12.806H46.4916V11.564H53.7096L53.0076 11.996C53.0196 11.384 52.8936 10.838 52.6296 10.358C52.3656 9.878 51.9996 9.506 51.5316 9.242C51.0756 8.966 50.5416 8.828 49.9296 8.828C49.3296 8.828 48.7956 8.966 48.3276 9.242C47.8596 9.506 47.4936 9.884 47.2296 10.376C46.9656 10.856 46.8336 11.408 46.8336 12.032V12.32C46.8336 12.956 46.9776 13.526 47.2656 14.03C47.5656 14.522 47.9796 14.906 48.5076 15.182C49.0356 15.458 49.6416 15.596 50.3256 15.596C50.8896 15.596 51.3996 15.5 51.8556 15.308C52.3236 15.116 52.7316 14.828 53.0796 14.444L54.0336 15.56C53.6016 16.064 53.0616 16.448 52.4136 16.712C51.7776 16.976 51.0636 17.108 50.2716 17.108ZM57.3263 17V7.46H59.1083L63.2123 14.516H62.4923L66.7043 7.46H68.3243V17H66.7583V9.404L67.0463 9.566L63.1943 15.92H62.4383L58.5683 9.44L58.9103 9.368V17H57.3263ZM75.9357 17.108C74.9157 17.108 74.0157 16.898 73.2357 16.478C72.4677 16.058 71.8677 15.482 71.4357 14.75C71.0157 14.018 70.8057 13.178 70.8057 12.23C70.8057 11.282 71.0097 10.442 71.4177 9.71C71.8377 8.978 72.4077 8.408 73.1277 8C73.8597 7.58 74.6817 7.37 75.5937 7.37C76.5177 7.37 77.3337 7.574 78.0417 7.982C78.7497 8.39 79.3017 8.966 79.6977 9.71C80.1057 10.442 80.3097 11.3 80.3097 12.284C80.3097 12.356 80.3037 12.44 80.2917 12.536C80.2917 12.632 80.2857 12.722 80.2737 12.806H72.1557V11.564H79.3737L78.6717 11.996C78.6837 11.384 78.5577 10.838 78.2937 10.358C78.0297 9.878 77.6637 9.506 77.1957 9.242C76.7397 8.966 76.2057 8.828 75.5937 8.828C74.9937 8.828 74.4597 8.966 73.9917 9.242C73.5237 9.506 73.1577 9.884 72.8937 10.376C72.6297 10.856 72.4977 11.408 72.4977 12.032V12.32C72.4977 12.956 72.6417 13.526 72.9297 14.03C73.2297 14.522 73.6437 14.906 74.1717 15.182C74.6997 15.458 75.3057 15.596 75.9897 15.596C76.5537 15.596 77.0637 15.5 77.5197 15.308C77.9877 15.116 78.3957 14.828 78.7437 14.444L79.6977 15.56C79.2657 16.064 78.7257 16.448 78.0777 16.712C77.4417 16.976 76.7277 17.108 75.9357 17.108ZM82.9904 17V7.46H84.7184V11.51H90.1544V7.46H91.8824V17H90.1544V13.004H84.7184V17H82.9904ZM95.2424 17V7.46H96.9704V11.51H102.406V7.46H104.134V17H102.406V13.004H96.9704V17H95.2424ZM111.58 17.108C110.62 17.108 109.768 16.898 109.024 16.478C108.28 16.058 107.692 15.482 107.26 14.75C106.828 14.006 106.612 13.166 106.612 12.23C106.612 11.282 106.828 10.442 107.26 9.71C107.692 8.978 108.28 8.408 109.024 8C109.768 7.58 110.62 7.37 111.58 7.37C112.528 7.37 113.374 7.58 114.118 8C114.874 8.408 115.462 8.978 115.882 9.71C116.314 10.43 116.53 11.27 116.53 12.23C116.53 13.178 116.314 14.018 115.882 14.75C115.462 15.482 114.874 16.058 114.118 16.478C113.374 16.898 112.528 17.108 111.58 17.108ZM111.58 15.596C112.192 15.596 112.738 15.458 113.218 15.182C113.71 14.906 114.094 14.516 114.37 14.012C114.646 13.496 114.784 12.902 114.784 12.23C114.784 11.546 114.646 10.958 114.37 10.466C114.094 9.962 113.71 9.572 113.218 9.296C112.738 9.02 112.192 8.882 111.58 8.882C110.968 8.882 110.422 9.02 109.942 9.296C109.462 9.572 109.078 9.962 108.79 10.466C108.502 10.958 108.358 11.546 108.358 12.23C108.358 12.902 108.502 13.496 108.79 14.012C109.078 14.516 109.462 14.906 109.942 15.182C110.422 15.458 110.968 15.596 111.58 15.596ZM123.184 17.108C122.212 17.108 121.342 16.898 120.574 16.478C119.818 16.058 119.224 15.482 118.792 14.75C118.36 14.018 118.144 13.178 118.144 12.23C118.144 11.282 118.36 10.442 118.792 9.71C119.224 8.978 119.818 8.408 120.574 8C121.342 7.58 122.212 7.37 123.184 7.37C124.048 7.37 124.816 7.544 125.488 7.892C126.172 8.228 126.7 8.732 127.072 9.404L125.758 10.25C125.446 9.782 125.062 9.44 124.606 9.224C124.162 8.996 123.682 8.882 123.166 8.882C122.542 8.882 121.984 9.02 121.492 9.296C121 9.572 120.61 9.962 120.322 10.466C120.034 10.958 119.89 11.546 119.89 12.23C119.89 12.914 120.034 13.508 120.322 14.012C120.61 14.516 121 14.906 121.492 15.182C121.984 15.458 122.542 15.596 123.166 15.596C123.682 15.596 124.162 15.488 124.606 15.272C125.062 15.044 125.446 14.696 125.758 14.228L127.072 15.056C126.7 15.716 126.172 16.226 125.488 16.586C124.816 16.934 124.048 17.108 123.184 17.108ZM131.076 17V8.522L131.508 8.972H127.584V7.46H136.296V8.972H132.39L132.804 8.522V17H131.076ZM142.473 10.7C143.685 10.712 144.609 10.988 145.245 11.528C145.881 12.068 146.199 12.83 146.199 13.814C146.199 14.846 145.851 15.644 145.155 16.208C144.459 16.76 143.475 17.03 142.203 17.018L138.063 17V7.46H139.791V10.682L142.473 10.7ZM142.059 15.704C142.839 15.716 143.427 15.56 143.823 15.236C144.231 14.912 144.435 14.432 144.435 13.796C144.435 13.172 144.237 12.716 143.841 12.428C143.445 12.14 142.851 11.99 142.059 11.978L139.791 11.942V15.686L142.059 15.704ZM146.905 8.558L147.805 4.904L148.039 5.948C147.691 5.948 147.397 5.84 147.157 5.624C146.929 5.408 146.815 5.12 146.815 4.76C146.815 4.388 146.929 4.094 147.157 3.878C147.397 3.65 147.685 3.536 148.021 3.536C148.369 3.536 148.651 3.656 148.867 3.896C149.083 4.124 149.191 4.412 149.191 4.76C149.191 4.868 149.185 4.982 149.173 5.102C149.161 5.21 149.131 5.336 149.083 5.48C149.047 5.624 148.987 5.81 148.903 6.038L148.039 8.558H146.905ZM150.307 8.558L151.207 4.904L151.441 5.948C151.093 5.948 150.799 5.84 150.559 5.624C150.331 5.408 150.217 5.12 150.217 4.76C150.217 4.388 150.331 4.094 150.559 3.878C150.799 3.65 151.087 3.536 151.423 3.536C151.771 3.536 152.053 3.656 152.269 3.896C152.485 4.124 152.593 4.412 152.593 4.76C152.593 4.868 152.587 4.982 152.575 5.102C152.563 5.21 152.533 5.336 152.485 5.48C152.449 5.624 152.389 5.81 152.305 6.038L151.441 8.558H150.307Z" fill="#3993C3"/>
</svg>
