<svg width="24" height="24" viewBox="0 0 24 24" fill="none" xmlns="http://www.w3.org/2000/svg">
<g clip-path="url(#clip0_435_2036)">
<path d="M6.04598 11.6771C6.88355 10.2622 8.16287 9.16173 9.68709 8.54505C11.2113 7.92838 12.8959 7.82967 14.4817 8.26414C16.0675 8.6986 17.4666 9.64215 18.4637 10.9496C19.4608 12.257 20.0005 13.8559 20 15.5001C20 15.7653 20.1053 16.0197 20.2929 16.2072C20.4804 16.3948 20.7348 16.5001 21 16.5001C21.2652 16.5001 21.5196 16.3948 21.7071 16.2072C21.8946 16.0197 22 15.7653 22 15.5001C22.0001 13.4889 21.3619 11.5294 20.1773 9.90406C18.9927 8.27868 17.3227 7.07121 15.408 6.45555C13.4933 5.83988 11.4326 5.84778 9.52265 6.47812C7.61271 7.10846 5.9521 8.3287 4.77998 9.96312L4.24298 6.91812C4.19697 6.65689 4.04906 6.42463 3.8318 6.27244C3.61454 6.12025 3.34572 6.06061 3.08448 6.10662C2.82324 6.15264 2.59098 6.30055 2.4388 6.51781C2.28661 6.73507 2.22697 7.00388 2.27298 7.26512L3.31498 13.1741C3.36135 13.4353 3.50955 13.6673 3.72698 13.8191C3.86867 13.9141 4.03052 13.9749 4.19974 13.9966C4.36896 14.0183 4.5409 14.0003 4.70198 13.9441L10.382 12.9431C10.6432 12.8971 10.8755 12.7492 11.0277 12.5319C11.1798 12.3147 11.2395 12.0459 11.1935 11.7846C11.1475 11.5234 10.9996 11.2911 10.7823 11.1389C10.565 10.9868 10.2962 10.9271 10.035 10.9731L6.04598 11.6771Z" fill="#699BF7"/>
</g>
<defs>
<clipPath id="clip0_435_2036">
<rect width="24" height="24" fill="white"/>
</clipPath>
</defs>
</svg>
