<svg width="18" height="18" viewBox="0 0 18 18" fill="none" xmlns="http://www.w3.org/2000/svg">
<path d="M5.625 6C5.625 5.90054 5.66451 5.80516 5.73483 5.73484C5.80516 5.66451 5.90054 5.625 6 5.625H12C12.0995 5.625 12.1948 5.66451 12.2652 5.73484C12.3355 5.80516 12.375 5.90054 12.375 6C12.375 6.09946 12.3355 6.19484 12.2652 6.26517C12.1948 6.33549 12.0995 6.375 12 6.375H6C5.90054 6.375 5.80516 6.33549 5.73483 6.26517C5.66451 6.19484 5.625 6.09946 5.625 6ZM6 9.375H12C12.0995 9.375 12.1948 9.33549 12.2652 9.26517C12.3355 9.19484 12.375 9.09946 12.375 9C12.375 8.90054 12.3355 8.80516 12.2652 8.73484C12.1948 8.66451 12.0995 8.625 12 8.625H6C5.90054 8.625 5.80516 8.66451 5.73483 8.73484C5.66451 8.80516 5.625 8.90054 5.625 9C5.625 9.09946 5.66451 9.19484 5.73483 9.26517C5.80516 9.33549 5.90054 9.375 6 9.375ZM9 11.625H6C5.90054 11.625 5.80516 11.6645 5.73483 11.7348C5.66451 11.8052 5.625 11.9005 5.625 12C5.625 12.0995 5.66451 12.1948 5.73483 12.2652C5.80516 12.3355 5.90054 12.375 6 12.375H9C9.09946 12.375 9.19484 12.3355 9.26517 12.2652C9.33549 12.1948 9.375 12.0995 9.375 12C9.375 11.9005 9.33549 11.8052 9.26517 11.7348C9.19484 11.6645 9.09946 11.625 9 11.625ZM17.625 1.5V11.6897C17.6254 11.8375 17.5964 11.9838 17.5398 12.1203C17.4831 12.2568 17.3999 12.3806 17.295 12.4847L12.4847 17.2959C12.3805 17.4006 12.2565 17.4835 12.1201 17.54C11.9836 17.5965 11.8374 17.6254 11.6897 17.625H1.5C1.20163 17.625 0.915483 17.5065 0.704505 17.2955C0.493526 17.0845 0.375 16.7984 0.375 16.5V1.5C0.375 1.20163 0.493526 0.915483 0.704505 0.704505C0.915483 0.493526 1.20163 0.375 1.5 0.375H16.5C16.7984 0.375 17.0845 0.493526 17.2955 0.704505C17.5065 0.915483 17.625 1.20163 17.625 1.5ZM1.5 16.875H11.625V12C11.625 11.9005 11.6645 11.8052 11.7348 11.7348C11.8052 11.6645 11.9005 11.625 12 11.625H16.875V1.5C16.875 1.40054 16.8355 1.30516 16.7652 1.23484C16.6948 1.16451 16.5995 1.125 16.5 1.125H1.5C1.40054 1.125 1.30516 1.16451 1.23484 1.23484C1.16451 1.30516 1.125 1.40054 1.125 1.5V16.5C1.125 16.5995 1.16451 16.6948 1.23484 16.7652C1.30516 16.8355 1.40054 16.875 1.5 16.875ZM16.3453 12.375H12.375V16.3453L16.3453 12.375Z" fill="#3993C3"/>
</svg>
