<svg width="19" height="24" viewBox="0 0 19 24" fill="none" xmlns="http://www.w3.org/2000/svg">
<path d="M15.5479 12.6332C16.2756 12.6332 16.9735 12.9223 17.488 13.4369C18.0026 13.9514 18.2917 14.6493 18.2917 15.377V16.2916C18.2917 19.8969 14.8894 23.6082 9.14583 23.6082C3.40225 23.6082 0 19.8969 0 16.2916V15.377C0 14.6493 0.289073 13.9514 0.803626 13.4369C1.31818 12.9223 2.01606 12.6332 2.74375 12.6332H15.5479ZM15.5479 14.4624H2.74375C2.50119 14.4624 2.26856 14.5588 2.09704 14.7303C1.92552 14.9018 1.82917 15.1344 1.82917 15.377V16.2916C1.82917 18.9219 4.44853 21.7791 9.14583 21.7791C13.8431 21.7791 16.4625 18.9219 16.4625 16.2916V15.377C16.4625 15.1344 16.3661 14.9018 16.1946 14.7303C16.0231 14.5588 15.7905 14.4624 15.5479 14.4624ZM9.14583 0.743652C10.4799 0.743652 11.7594 1.27362 12.7027 2.21697C13.6461 3.16031 14.176 4.43977 14.176 5.77386C14.176 7.10795 13.6461 8.38741 12.7027 9.33076C11.7594 10.2741 10.4799 10.8041 9.14583 10.8041C7.81174 10.8041 6.53229 10.2741 5.58894 9.33076C4.64559 8.38741 4.11562 7.10795 4.11562 5.77386C4.11562 4.43977 4.64559 3.16031 5.58894 2.21697C6.53229 1.27362 7.81174 0.743652 9.14583 0.743652ZM9.14583 2.57282C8.29686 2.57282 7.48267 2.91007 6.88236 3.51038C6.28204 4.11069 5.94479 4.92489 5.94479 5.77386C5.94479 6.62283 6.28204 7.43703 6.88236 8.03734C7.48267 8.63765 8.29686 8.9749 9.14583 8.9749C9.9948 8.9749 10.809 8.63765 11.4093 8.03734C12.0096 7.43703 12.3469 6.62283 12.3469 5.77386C12.3469 4.92489 12.0096 4.11069 11.4093 3.51038C10.809 2.91007 9.9948 2.57282 9.14583 2.57282Z" fill="url(#paint0_linear_230_2289)"/>
<defs>
<linearGradient id="paint0_linear_230_2289" x1="9.14583" y1="0.743652" x2="9.14583" y2="23.6082" gradientUnits="userSpaceOnUse">
<stop stop-color="#4097C5" stop-opacity="0.99"/>
<stop offset="1" stop-color="#0174B1"/>
</linearGradient>
</defs>
</svg>
