<svg width="24" height="24" viewBox="0 0 24 24" fill="none" xmlns="http://www.w3.org/2000/svg">
<g opacity="0.8">
<path d="M12 22.5C17.79 22.5 22.5 17.79 22.5 12C22.5 6.21 17.79 1.5 12 1.5C6.21 1.5 1.5 6.21 1.5 12C1.5 17.79 6.21 22.5 12 22.5ZM12 3C16.965 3 21 7.035 21 12C21 16.965 16.965 21 12 21C7.035 21 3 16.965 3 12C3 7.035 7.035 3 12 3Z" fill="#3993C3"/>
<path d="M8.99995 15.75C9.13495 15.75 9.26995 15.72 9.38995 15.645L13.14 13.395C13.251 13.3283 13.3427 13.2336 13.4058 13.1204C13.469 13.0073 13.5014 12.8796 13.5 12.75V6.75C13.5 6.33 13.17 6 12.75 6C12.33 6 12 6.33 12 6.75V12.33L8.60995 14.355C8.47032 14.4406 8.3624 14.5694 8.30254 14.7218C8.24268 14.8742 8.23415 15.042 8.27825 15.1997C8.32234 15.3575 8.41666 15.4965 8.54689 15.5958C8.67713 15.6951 8.83618 15.7492 8.99995 15.75Z" fill="#3993C3"/>
</g>
</svg>
