<svg width="90" height="100" viewBox="0 0 90 100" fill="none" xmlns="http://www.w3.org/2000/svg">
<path fill-rule="evenodd" clip-rule="evenodd" d="M25.3333 10.6668H64.6667V0.833496H74.5V10.6668H79.4167C82.0246 10.6668 84.5258 11.7028 86.3699 13.5469C88.214 15.3911 89.25 17.8922 89.25 20.5002V89.3335C89.25 91.9415 88.214 94.4426 86.3699 96.2867C84.5258 98.1308 82.0246 99.1668 79.4167 99.1668H10.5833C7.97537 99.1668 5.47422 98.1308 3.63012 96.2867C1.78601 94.4426 0.75 91.9415 0.75 89.3335V20.5002C0.75 17.8922 1.78601 15.3911 3.63012 13.5469C5.47422 11.7028 7.97537 10.6668 10.5833 10.6668H15.5V0.833496H25.3333V10.6668ZM10.5833 30.3335V89.3335H79.4167V30.3335H10.5833ZM20.4167 45.0835H30.25V54.9168H20.4167V45.0835ZM40.0833 45.0835H49.9167V54.9168H40.0833V45.0835ZM59.75 45.0835H69.5833V54.9168H59.75V45.0835ZM59.75 64.7502H69.5833V74.5835H59.75V64.7502ZM40.0833 64.7502H49.9167V74.5835H40.0833V64.7502ZM20.4167 64.7502H30.25V74.5835H20.4167V64.7502Z" fill="#3993C3"/>
</svg>
