<svg width="36" height="38" viewBox="0 0 36 38" fill="none" xmlns="http://www.w3.org/2000/svg">
<path d="M4.38867 31.3954C4.38867 29.5905 5.10568 27.8594 6.38197 26.5831C7.65826 25.3069 9.38928 24.5898 11.1942 24.5898H24.8053C26.6103 24.5898 28.3413 25.3069 29.6176 26.5831C30.8939 27.8594 31.6109 29.5905 31.6109 31.3954C31.6109 32.2979 31.2524 33.1634 30.6142 33.8015C29.9761 34.4397 29.1106 34.7982 28.2081 34.7982H7.79145C6.88898 34.7982 6.02347 34.4397 5.38532 33.8015C4.74718 33.1634 4.38867 32.2979 4.38867 31.3954Z" stroke="black" stroke-opacity="0.4" stroke-width="2.55208" stroke-linejoin="round"/>
<path d="M18.0002 17.7845C20.8191 17.7845 23.1043 15.4993 23.1043 12.6803C23.1043 9.86139 20.8191 7.57617 18.0002 7.57617C15.1812 7.57617 12.896 9.86139 12.896 12.6803C12.896 15.4993 15.1812 17.7845 18.0002 17.7845Z" stroke="black" stroke-opacity="0.4" stroke-width="2.55208"/>
</svg>
