<svg width="80" height="120" viewBox="0 0 80 120" fill="none" xmlns="http://www.w3.org/2000/svg">
<path d="M49.7664 7.58459L41.3046 52.0428L71.959 52.146L30.2328 112.416L38.6946 63.5046L8.04213 63.3977L49.7664 7.58459ZM49.7721 0.084707C49.5696 0.084707 49.3672 0.0920898 49.1685 0.106973C47.8447 0.213965 46.9671 0.656465 45.9266 1.35584C45.3407 1.74647 44.8124 2.2173 44.3572 2.75459C44.2205 2.91585 44.0916 3.08354 43.9709 3.25709L1.94651 58.8752C0.287135 61.1496 0.043385 64.1516 1.31838 66.6603C2.59151 69.1691 5.16588 70.7591 7.98776 70.7797L29.6365 70.9372L22.8303 111.038C22.1834 114.484 24.0209 117.919 27.2553 119.303C28.1952 119.707 29.2077 119.915 30.2308 119.914C32.5876 119.914 34.5245 118.812 35.9778 116.82L78.0546 56.5502C79.714 54.2757 79.956 51.2701 78.6827 48.7651C77.4096 46.2564 74.8353 44.6662 72.0134 44.6457L50.3646 44.6082L57.0978 9.34885C57.2405 8.77159 57.3123 8.1791 57.3116 7.58447C57.3116 3.52697 54.0809 0.219473 50.0384 0.0882227C49.9485 0.0844727 49.8603 0.0844727 49.7722 0.0844727L49.7721 0.084707Z" fill="#3993C3"/>
</svg>
