<svg width="121" height="89" viewBox="0 0 121 89" fill="none" xmlns="http://www.w3.org/2000/svg">
<path d="M76.8747 0.833496C88.4558 0.833496 99.5626 5.43408 107.752 13.6232C115.941 21.8123 120.541 32.919 120.541 44.5002C120.541 56.0813 115.941 67.1881 107.752 75.3772C99.5626 83.5663 88.4558 88.1668 76.8747 88.1668C65.2936 88.1668 54.1868 83.5663 45.9977 75.3772C37.8086 67.1881 33.208 56.0813 33.208 44.5002C33.208 32.919 37.8086 21.8123 45.9977 13.6232C54.1868 5.43408 65.2936 0.833496 76.8747 0.833496ZM76.8747 11.7502C68.1888 11.7502 59.8587 15.2006 53.7169 21.3424C47.5751 27.4842 44.1247 35.8143 44.1247 44.5002C44.1247 53.186 47.5751 61.5161 53.7169 67.6579C59.8587 73.7997 68.1888 77.2502 76.8747 77.2502C85.5605 77.2502 93.8906 73.7997 100.032 67.6579C106.174 61.5161 109.625 53.186 109.625 44.5002C109.625 35.8143 106.174 27.4842 100.032 21.3424C93.8906 15.2006 85.5605 11.7502 76.8747 11.7502ZM71.4163 22.6668H79.6038V43.2993L92.3218 56.0172L86.5359 61.8031L71.4163 46.6835V22.6668ZM5.91634 77.2502C4.4687 77.2502 3.08035 76.6751 2.05672 75.6515C1.03308 74.6278 0.458008 73.2395 0.458008 71.7918C0.458008 70.3442 1.03308 68.9558 2.05672 67.9322C3.08035 66.9086 4.4687 66.3335 5.91634 66.3335H26.8218C28.5138 70.2089 30.6972 73.866 33.208 77.2502H5.91634ZM11.3747 49.9585C9.92703 49.9585 8.53869 49.3834 7.51505 48.3598C6.49141 47.3362 5.91634 45.9478 5.91634 44.5002C5.91634 43.0525 6.49141 41.6642 7.51505 40.6405C8.53869 39.6169 9.92703 39.0418 11.3747 39.0418H22.5643L22.2913 44.5002L22.5643 49.9585H11.3747ZM16.833 22.6668C15.3854 22.6668 13.997 22.0918 12.9734 21.0681C11.9497 20.0445 11.3747 18.6561 11.3747 17.2085C11.3747 15.7609 11.9497 14.3725 12.9734 13.3489C13.997 12.3252 15.3854 11.7502 16.833 11.7502H33.208C30.6972 15.1343 28.5138 18.7914 26.8218 22.6668H16.833Z" fill="#3993C3"/>
</svg>
