<svg width="24" height="24" viewBox="0 0 24 24" fill="none" xmlns="http://www.w3.org/2000/svg">
<path fill-rule="evenodd" clip-rule="evenodd" d="M14.1001 2.39077C14.8333 1.67227 15.8204 1.27216 16.8469 1.27739C17.8734 1.28263 18.8564 1.69277 19.5822 2.41871C20.308 3.14464 20.7179 4.12768 20.723 5.1542C20.728 6.18071 20.3277 7.16774 19.6091 7.90077L12.0151 15.4948C11.5871 15.9228 11.3251 16.1848 11.0351 16.4118C10.6917 16.6793 10.3202 16.9087 9.9271 17.0958C9.5931 17.2548 9.2421 17.3718 8.6681 17.5628L5.9961 18.4538L5.3541 18.6678C5.07245 18.7619 4.77016 18.7756 4.48113 18.7075C4.1921 18.6394 3.92777 18.492 3.7178 18.2821C3.50783 18.0721 3.36051 17.8078 3.29238 17.5187C3.22425 17.2297 3.23801 16.9274 3.3321 16.6458L4.4371 13.3318C4.6281 12.7578 4.7451 12.4068 4.9041 12.0728C5.09154 11.68 5.32123 11.3088 5.5891 10.9658C5.8161 10.6748 6.0771 10.4128 6.5051 9.98577L14.1001 2.39077ZM5.9601 16.8838L5.1161 16.0388L5.8441 13.8538C6.0561 13.2178 6.1441 12.9588 6.2581 12.7188C6.3981 12.4238 6.5711 12.1458 6.7711 11.8888C6.9351 11.6788 7.1271 11.4848 7.6011 11.0098L13.4921 5.11977C13.7982 5.88452 14.2572 6.5787 14.8411 7.15977C15.4223 7.74327 16.1164 8.20197 16.8811 8.50777L10.9901 14.3978C10.5151 14.8728 10.3221 15.0648 10.1121 15.2278C9.85465 15.4284 9.57638 15.6007 9.2821 15.7418C9.0421 15.8558 8.7821 15.9438 8.1461 16.1558L5.9611 16.8848L5.9601 16.8838ZM18.0761 7.31177C17.922 7.27773 17.7701 7.23465 17.6211 7.18277C16.9731 6.95624 16.385 6.58559 15.9011 6.09877C15.4144 5.61471 15.0438 5.02665 14.8171 4.37877C14.7649 4.22978 14.7215 4.07785 14.6871 3.92377L15.1601 3.45177C15.6119 3.0146 16.2173 2.77248 16.846 2.77764C17.4746 2.78279 18.076 3.0348 18.5205 3.47933C18.9651 3.92385 19.2171 4.52528 19.2222 5.15391C19.2274 5.78254 18.9853 6.38802 18.5481 6.83977L18.0761 7.31177ZM3.2501 21.9998C3.2501 21.8009 3.32911 21.6101 3.46977 21.4694C3.61042 21.3288 3.80118 21.2498 4.0001 21.2498H20.0001V22.7498H4.0001C3.80118 22.7498 3.61042 22.6708 3.46977 22.5301C3.32911 22.3894 3.2501 22.1987 3.2501 21.9998Z" fill="#74B3D5"/>
</svg>
