<svg width="18" height="19" viewBox="0 0 18 19" fill="none" xmlns="http://www.w3.org/2000/svg">
<path d="M13.5714 5.57143L9.02514 1L4.42857 5.57143M9.02514 1.024V14.7143M5.57143 9H3.28571C2.67951 9 2.09812 9.24082 1.66947 9.66947C1.24082 10.0981 1 10.6795 1 11.2857V15.8571C1 16.4634 1.24082 17.0447 1.66947 17.4734C2.09812 17.902 2.67951 18.1429 3.28571 18.1429H14.7143C15.3205 18.1429 15.9019 17.902 16.3305 17.4734C16.7592 17.0447 17 16.4634 17 15.8571V11.2857C17 10.6795 16.7592 10.0981 16.3305 9.66947C15.9019 9.24082 15.3205 9 14.7143 9H12.4286" stroke="white" stroke-width="1.14286" stroke-linecap="round" stroke-linejoin="round"/>
</svg>
