<svg width="66" height="82" viewBox="0 0 66 82" fill="none" xmlns="http://www.w3.org/2000/svg">
<mask id="mask0_430_2018" style="mask-type:luminance" maskUnits="userSpaceOnUse" x="0" y="0" width="66" height="82">
<path d="M61 1H5C3.93913 1 2.92172 1.42143 2.17157 2.17157C1.42143 2.92172 1 3.93913 1 5V77C1 78.0609 1.42143 79.0783 2.17157 79.8284C2.92172 80.5786 3.93913 81 5 81H61C62.0609 81 63.0783 80.5786 63.8284 79.8284C64.5786 79.0783 65 78.0609 65 77V5C65 3.93913 64.5786 2.92172 63.8284 2.17157C63.0783 1.42143 62.0609 1 61 1Z" fill="white" stroke="white" stroke-width="2" stroke-linecap="round" stroke-linejoin="round"/>
<path d="M19 53H47M19 65H33M45 19L29 35L21 27" stroke="black" stroke-width="2" stroke-linecap="round" stroke-linejoin="round"/>
</mask>
<g mask="url(#mask0_430_2018)">
<path d="M-15 -7H81V89H-15V-7Z" fill="#3993C3"/>
</g>
</svg>
