<svg width="96" height="96" viewBox="0 0 96 96" fill="none" xmlns="http://www.w3.org/2000/svg">
<mask id="mask0_253_2565" style="mask-type:luminance" maskUnits="userSpaceOnUse" x="15" y="7" width="66" height="82">
<path d="M76 8H20C18.9391 8 17.9217 8.42143 17.1716 9.17157C16.4214 9.92172 16 10.9391 16 12V84C16 85.0609 16.4214 86.0783 17.1716 86.8284C17.9217 87.5786 18.9391 88 20 88H76C77.0609 88 78.0783 87.5786 78.8284 86.8284C79.5786 86.0783 80 85.0609 80 84V12C80 10.9391 79.5786 9.92172 78.8284 9.17157C78.0783 8.42143 77.0609 8 76 8Z" fill="white" stroke="white" stroke-width="2" stroke-linecap="round" stroke-linejoin="round"/>
<path d="M34 60H62M34 72H48M60 26L44 42L36 34" stroke="black" stroke-width="2" stroke-linecap="round" stroke-linejoin="round"/>
</mask>
<g mask="url(#mask0_253_2565)">
<path d="M0 0H96V96H0V0Z" fill="#3993C3"/>
</g>
</svg>
