<svg width="24" height="20" viewBox="0 0 24 20" fill="none" xmlns="http://www.w3.org/2000/svg">
<path d="M12.75 0.75V2.5H14.725C15.076 2.5 15.419 2.606 15.709 2.803L17.406 3.957C17.447 3.985 17.496 4 17.546 4H21.648C21.8469 4 22.0377 4.07902 22.1783 4.21967C22.319 4.36032 22.398 4.55109 22.398 4.75C22.398 4.94891 22.319 5.13968 22.1783 5.28033C22.0377 5.42098 21.8469 5.5 21.648 5.5H20.07L23.436 13.18C23.5035 13.3335 23.5175 13.5053 23.4758 13.6677C23.4341 13.8302 23.3391 13.974 23.206 14.076C23.106 14.15 23.003 14.219 22.896 14.282C22.6423 14.4334 22.3784 14.5667 22.106 14.681C21.2015 15.0593 20.2304 15.2527 19.25 15.25C18.27 15.2531 17.2992 15.06 16.395 14.682C16.1225 14.5676 15.8585 14.434 15.605 14.282C15.4989 14.2206 15.3964 14.1531 15.298 14.08L15.293 14.076C15.1599 13.974 15.0648 13.8302 15.0231 13.6677C14.9814 13.5053 14.9955 13.3335 15.063 13.18L18.431 5.5H17.545C17.194 5.5 16.851 5.394 16.561 5.197L14.864 4.043C14.8228 4.01479 14.7739 3.99979 14.724 4H12.75V18.5H17.237C17.4359 18.5 17.6267 18.579 17.7673 18.7197C17.908 18.8603 17.987 19.0511 17.987 19.25C17.987 19.4489 17.908 19.6397 17.7673 19.7803C17.6267 19.921 17.4359 20 17.237 20H6.76299C6.56407 20 6.37331 19.921 6.23266 19.7803C6.092 19.6397 6.01299 19.4489 6.01299 19.25C6.01299 19.0511 6.092 18.8603 6.23266 18.7197C6.37331 18.579 6.56407 18.5 6.76299 18.5H11.25V4H9.27499C9.22506 3.99997 9.17629 4.01496 9.13499 4.043L7.43899 5.197C7.14899 5.394 6.80599 5.5 6.45499 5.5H5.56899L8.93699 13.18C9.00217 13.3292 9.01704 13.4956 8.97933 13.654C8.94163 13.8124 8.8534 13.9542 8.72799 14.058C8.64799 14.123 8.56799 14.184 8.41799 14.281C8.16509 14.4448 7.90035 14.5895 7.62599 14.714C6.7228 15.1243 5.742 15.3357 4.74999 15.334C3.75794 15.3361 2.77706 15.1246 1.87399 14.714C1.59962 14.5895 1.33489 14.4448 1.08199 14.281C0.975042 14.213 0.871889 14.1392 0.772986 14.06C0.648564 13.955 0.561045 13.8129 0.523254 13.6545C0.485463 13.4962 0.499387 13.3299 0.562986 13.18L3.92999 5.5H2.35299C2.15407 5.5 1.96331 5.42098 1.82266 5.28033C1.682 5.13968 1.60299 4.94891 1.60299 4.75C1.60299 4.55109 1.682 4.36032 1.82266 4.21967C1.96331 4.07902 2.15407 4 2.35299 4H6.45499C6.50499 4 6.55399 3.985 6.59599 3.957L8.29099 2.803C8.58099 2.605 8.92499 2.5 9.27599 2.5H11.25V0.75C11.25 0.551088 11.329 0.360322 11.4697 0.21967C11.6103 0.0790175 11.8011 0 12 0C12.1989 0 12.3897 0.0790175 12.5303 0.21967C12.671 0.360322 12.75 0.551088 12.75 0.75ZM2.19299 13.198C2.98003 13.617 3.85837 13.8351 4.74999 13.833C5.6416 13.8351 6.51994 13.617 7.30699 13.198L4.74999 7.368L2.19299 13.198ZM16.703 13.174C16.785 13.214 16.877 13.257 16.978 13.3C17.508 13.523 18.283 13.75 19.25 13.75C20.1316 13.7525 21.0023 13.5556 21.797 13.174L19.25 7.367L16.703 13.174Z" fill="url(#paint0_linear_230_2299)"/>
<defs>
<linearGradient id="paint0_linear_230_2299" x1="12.0009" y1="0" x2="12.0009" y2="20" gradientUnits="userSpaceOnUse">
<stop stop-color="#4097C5" stop-opacity="0.99"/>
<stop offset="1" stop-color="#0174B1"/>
</linearGradient>
</defs>
</svg>
